<?xml version="1.0" encoding="utf-8"?>
<!-- Generator: Adobe Illustrator 24.1.2, SVG Export Plug-In . SVG Version: 6.00 Build 0)  -->
<svg version="1.1" id="图层_1" xmlns="http://www.w3.org/2000/svg" xmlns:xlink="http://www.w3.org/1999/xlink" x="0px" y="0px"
	 viewBox="0 0 2048 2048" style="enable-background:new 0 0 2048 2048;" xml:space="preserve">
<style type="text/css">
	.st0{fill:#FFFFFF;}
	.st1{opacity:0.4;fill:#111111;}
	.st2{opacity:0.978;fill:#111111;}
	.st3{opacity:0.9561;fill:#111111;}
	.st4{opacity:0.9341;fill:#111111;}
	.st5{opacity:0.9122;fill:#111111;}
	.st6{opacity:0.8902;fill:#111111;}
	.st7{opacity:0.8683;fill:#111111;}
	.st8{opacity:0.8463;fill:#111111;}
	.st9{opacity:0.8244;fill:#111111;}
	.st10{opacity:0.8024;fill:#111111;}
	.st11{opacity:0.7805;fill:#111111;}
	.st12{opacity:0.7585;fill:#111111;}
	.st13{opacity:0.7366;fill:#111111;}
	.st14{opacity:0.7146;fill:#111111;}
	.st15{opacity:0.6927;fill:#111111;}
	.st16{opacity:0.6707;fill:#111111;}
	.st17{opacity:0.6488;fill:#111111;}
	.st18{opacity:0.6268;fill:#111111;}
	.st19{opacity:0.6049;fill:#111111;}
	.st20{opacity:0.5829;fill:#111111;}
	.st21{opacity:0.561;fill:#111111;}
	.st22{opacity:0.539;fill:#111111;}
	.st23{opacity:0.5171;fill:#111111;}
	.st24{opacity:0.4951;fill:#111111;}
	.st25{opacity:0.4732;fill:#111111;}
	.st26{opacity:0.4512;fill:#111111;}
	.st27{opacity:0.4293;fill:#111111;}
	.st28{opacity:0.4073;fill:#111111;}
	.st29{opacity:0.3854;fill:#111111;}
	.st30{opacity:0.3634;fill:#111111;}
	.st31{opacity:0.3415;fill:#111111;}
	.st32{opacity:0.3195;fill:#111111;}
	.st33{opacity:0.2976;fill:#111111;}
	.st34{opacity:0.2756;fill:#111111;}
	.st35{opacity:0.2537;fill:#111111;}
	.st36{opacity:0.2317;fill:#111111;}
	.st37{opacity:0.2098;fill:#111111;}
	.st38{opacity:0.1878;fill:#111111;}
	.st39{opacity:0.1659;fill:#111111;}
	.st40{opacity:0.1439;fill:#111111;}
	.st41{opacity:0.122;fill:#111111;}
	.st42{opacity:0.1;fill:#111111;}
	.st43{fill:url(#SVGID_1_);}
</style>
<rect x="-21.9" y="-58.6" class="st0" width="2086.2" height="2122.9"/>
<g>
	<rect class="st1" width="2048" height="39.1"/>
	<rect y="1659.7" class="st2" width="2048" height="38.4"/>
	<rect x="0" y="1562.5" class="st3" width="2048" height="37.7"/>
	<rect y="1295.8" class="st4" width="2048" height="37"/>
	<rect y="1465.6" class="st5" width="2048" height="36.3"/>
	<rect y="1856.4" class="st6" width="2048" height="35.6"/>
	<rect y="99.7" class="st7" width="2048" height="34.9"/>
	<rect y="764.8" class="st8" width="2048" height="34.2"/>
	<rect x="0" y="246.9" class="st9" width="2048" height="33.4"/>
	<rect y="1125.7" class="st10" width="2048" height="32.7"/>
	<rect x="0" y="816.5" class="st11" width="2048" height="32"/>
	<rect y="296.7" class="st12" width="2048" height="31.3"/>
	<rect x="0" y="993.4" class="st13" width="2048" height="30.6"/>
	<rect y="443.9" class="st14" width="2048" height="29.9"/>
	<rect y="932.3" class="st15" width="2048" height="29.2"/>
	<rect y="344.8" class="st16" width="2048" height="28.5"/>
	<rect y="1818.2" class="st17" width="2048" height="27.8"/>
	<rect y="640.5" class="st18" width="2048" height="27"/>
	<rect y="738.5" class="st19" width="2048" height="26.3"/>
	<rect y="1184.1" class="st20" width="2048" height="25.6"/>
	<rect y="885.6" class="st21" width="2048" height="24.9"/>
	<rect y="397.9" class="st22" width="2048" height="24.2"/>
	<rect y="1423.2" class="st23" width="2048" height="23.5"/>
	<rect y="1645.8" class="st24" width="2048" height="22.8"/>
	<rect y="545.4" class="st25" width="2048" height="22.1"/>
	<rect y="1082.6" class="st26" width="2048" height="21.4"/>
	<rect y="1180.6" class="st27" width="2048" height="20.7"/>
	<rect y="1229.7" class="st28" width="2048" height="19.9"/>
	<rect y="1278.9" class="st29" width="2048" height="19.2"/>
	<rect y="1328" class="st30" width="2048" height="18.5"/>
	<rect y="1511.3" class="st31" width="2048" height="17.8"/>
	<rect y="1524" class="st32" width="2048" height="17.1"/>
	<rect y="1621.9" class="st33" width="2048" height="16.4"/>
	<rect y="505.3" class="st34" width="2048" height="15.7"/>
	<rect y="1769.1" class="st35" width="2048" height="15"/>
	<rect y="61.2" class="st36" width="2048" height="14.3"/>
	<rect y="1818.6" class="st37" width="2048" height="13.6"/>
	<rect y="159.6" class="st38" width="2048" height="12.8"/>
	<rect y="696.8" class="st39" width="2048" height="12.1"/>
	<rect y="2036.6" class="st40" width="2048" height="11.4"/>
	<rect y="209.4" class="st41" width="2048" height="10.7"/>
	<rect y="1966.8" class="st42" width="2048" height="10"/>
</g>
<linearGradient id="SVGID_1_" gradientUnits="userSpaceOnUse" x1="0" y1="1024" x2="2048" y2="1024">
	<stop  offset="0" style="stop-color:#000000;"/>
	<stop  offset="0.3352" style="stop-color:#000000;stop-opacity:0"/>
	<stop  offset="0.7709" style="stop-color:#231815;stop-opacity:0"/>
	<stop  offset="1" style="stop-color:#000000;"/>
</linearGradient>
<rect class="st43" width="2048" height="2048"/>
</svg>
