<svg id="图层_1" data-name="图层 1" xmlns="http://www.w3.org/2000/svg" viewBox="0 0 2048 2048"><defs><style>.cls-1{fill:#c1272d;}.cls-2{fill:#6ca83d;}.cls-3{fill:#00ff00;}.cls-4{fill:#bdccd4;}.cls-5{fill:gray;}</style></defs><path class="cls-1" d="M1409,656.08a20,20,0,0,0-4,11c-3.72,8.2-6.92,16.59-8.58,25.49l-1,2.44c-3.69,6.9-5.32,14.39-6.43,22-.42.3-1.18.5-.39,1.19.11-.41.23-.82.34-1.24,3-6.9,6.08-13.76,7.93-21.08.21-.8.42-1.6.62-2.39,3-8.11,6.78-15.93,8.62-24.44a32.79,32.79,0,0,0,2.83-13.05c.77-.65,1.36-1.33.07-2.58ZM1388.3,1752.94c3.61,12.15,6.09,24.7,12.72,36.63-1.8-13.31-7.5-24.62-11.1-36.57-.83-4.64-2.87-8.85-5-13.09C1385.32,1744.45,1385.53,1749,1388.3,1752.94ZM1733.86,655.16q18.36,22.46,36.73,44.9c.78,1,1.63,2.29,3,.61a161.21,161.21,0,0,0,17.52-15.51c5.79-3.94,10.71-8.91,15.89-13.55,15.64-14,31.55-27.44,53-31.76,1.92-.38,3.27-1.54,2.9-3.83-1.36-8.4,2.2-14.82,8.27-20.12,3.06-2.68,3-5.65,2.21-9.38-3.19-14.83-4.68-29.77-2.68-45a139.6,139.6,0,0,0,.85-30.31c.78-7.68,1.66-15.36,2.33-23.05.55-6.43.44-6.44-6.26-5.55l-48.29-1.26c-20.77-1.19-41.54-2.44-62.36-1.82-14.26.42-28.55,1.22-41.81,7.41-12.84,6-23.37,14.67-30.66,27-1.29,1.92-2.92,3.7-3.82,5.79-7.93,18.37-7,36.5,3,53.67,12.17,20.76,28.94,38,44.93,55.72A19.72,19.72,0,0,0,1733.86,655.16Zm42.77,827.41c-1.43-2.49-2.31-.55-3.15.46q-18.36,22.42-36.67,44.87a19.93,19.93,0,0,0-5.21,6c-14.85,16.77-30.53,32.85-42.55,52-7.9,12.58-12.53,26-10.13,40.88,1.25,7.74,2.62,15.73,8.46,21.83a10.61,10.61,0,0,0,.76,2.31,29.3,29.3,0,0,0,8.27,9.39c3.6,2.54,6.24,6.59,10,9.32,12,8.66,25.74,12,40.07,13.22,25.25,2.19,50.46.12,75.68-1.18l48.28-1.15c6.92.72,7.09.57,6.37-6.2-.79-7.5-1.63-15-2.44-22.5a92.54,92.54,0,0,0,0-20.91c-2.4-18.46-2.45-36.8,2-55,.83-3.38.46-5.89-2.13-8.49-5-5.07-10.19-10.29-8.43-18.58.83-3.89-1.3-5.23-4.87-6.11a89.55,89.55,0,0,1-37.81-20c-9.67-8.4-19.46-16.64-29.2-25A166.28,166.28,0,0,0,1776.63,1482.57ZM1928.85,108a132.81,132.81,0,0,0,4.74,24.33c.59,2,1.35,2.79,3.37,2.43,7.72-1.38,15.08.25,22.54,2.15,3.57.91,5.24,2.42,5.23,5.86,0,6.47,2.49,12.35,4.69,18.18,2,5.24,5.71,9.65,9.44,14.72,3-12.46,5.08-57.76,4-80.44,1.43-8.35-1.24-16.42-1.64-24.65-.15-3.16-1.57-3.82-4.29-3.83-15.44-.06-30.87.15-46.28,1.34-2,.15-3.23.74-3.34,2.8A169.44,169.44,0,0,0,1928.85,108Zm54,780.3a161.73,161.73,0,0,0,1.51-37.24c-.14-2.14-1.6-2.1-3.13-2.27-15.92-1.67-31.89-1.89-47.87-1.73-1.17,0-2.34-.15-2.48,1.61-.74,9.05-3.31,18-1.93,27.17.57,26.63-.88,53.36,3.74,80.41,7.69-9.51,13.1-19.58,14.08-31.42.39-4.81,2-6.83,6.7-7.93a73.74,73.74,0,0,1,20.7-1.88c1.82.1,3.33.24,4-2.37A135.55,135.55,0,0,0,1982.85,888.29Zm-32.77-696c-6.63-.21-13.27-.33-19.9-.67-2.37-.12-3.28.65-3.26,3,.11,11.94-.47,23.9,1.26,35.78.43,8.46,2.14,16.75,3.34,25.11.45,3.1,2.48,2.81,4.32,2.43,7.33-1.51,14,.45,20.74,3.08,4.07,1.58,5.7,3.76,6.5,8a57,57,0,0,0,17.64,31.8c6-28.32,5.1-56.59,5-84.81.68-4.51-.7-8.89-.83-13.35-.34-12-.4-12-12.45-10.44Zm12.72,125.08-22.63-.11a58.45,58.45,0,0,1-5.93-.39c-4-.64-5.83,1-6,5-.31,6.43-.74,12.86-1.12,19.29-.13,28.28-1,56.6,5,85,9.52-9.7,15.86-20.32,17.81-33.22.49-3.26,2-4.91,5.16-6.27,7-3,13.94-4.91,21.61-3.67,2,.32,4.26.64,4.68-2.71,1-8.21,2.81-16.32,3.23-24.62,1.6-11.86,1.23-23.78,1.28-35.69,0-2.46-1-3.2-3.25-3.13C1976,317.06,1969.42,317.2,1962.8,317.37ZM1780.09,1832c.54-.3.84-.7.56-1.34-.05-.42-.1-.84-.16-1.26,1.58-12.11,3.72-24.14,4.49-36.35,1.52-5,3.44-9.93,4.42-15,.67-3.45,2.06-4.29,5.27-4.11,25,1.41,49.19-4.23,73.49-8.88,2.14-.41,2.64-1.17,2.81-3.16.87-10.3.27-20.59-.18-30.87-.09-1.93-.19-4-2.38-5.13-4-2-7.55-4.61-11.85-5.95a573.2,573.2,0,0,0-62.19-16.06c-15.57-3-31.23-5.25-47.23-4-7.11.55-14.3-.08-21.46-.28-11.57-.33-23.06-.22-34.32,3.18a5.86,5.86,0,0,0-4.53,4.4c-2.3,7-4.61,13.9-6.37,21-2.81,11.38-3,11.34,7.41,16.3l1.77.84c18.46,8.76,36.66,18.31,57,21.94,5.45,1,7.17,3.37,6.47,8.48a41.16,41.16,0,0,0,0,6c-1,5.24.18,10.52-.68,15.84-1.58,9.74-2.38,19.61-3.51,29.43-1.23,2.83-.84,5.89-1.26,8.83-1.92,13.2-3.75,26.41-5.8,39.59-1.55,10-2,20.1-3.26,30.09-1.83,14.1-3.52,28.23-4.57,42.39-1.11,15-3.63,29.84-5.53,44.75-1.71,13.42-3.72,26.8-5.55,40.21-.3,2.16.06,3.7,2.88,4.17,7.83,1.3,15.62,2.75,23.59,3,2.25.06,3.39-.06,3.7-2.94,1.38-12.63,3.23-25.2,4.75-37.82,1.2-10,1.9-20.11,3.32-30.09,1.6-11.24,4.22-22.33,5.59-33.58,2.44-20,6.48-39.67,8.26-59.72C1776.38,1861.16,1778.39,1846.59,1780.09,1832ZM183.86,1845.12c4.48,7.83,10.53,14.39,16.73,20.86,9.53,10,18.74,20.06,24.66,32.89a356.68,356.68,0,0,0,19.81,36.25c4.76,7.8,10.71,15.23,13.62,23.69,8.77,25.45,18.69,50.67,21.35,77.81.26,2.64,1.44,3.37,3.85,3.32,4.8-.1,9.53-.11,14.28-1.48,8.89-2.57,17.92-5,27.3-4.48,4.77.25,9.5,1.22,14.24,1.94,3.66.55,4.7-.63,3.4-4.24a86.56,86.56,0,0,1-4.94-37.71c.78-8.59,1.57-17.18,2.7-25.73,1-7.46.27-9.27-6-9.25-8.19,0-15.43-3.11-22.1-7-8-4.6-14.84-10.94-17.27-20.44a95,95,0,0,1-2.33-14.24c-.69-6.88,6-19,11.43-19.95,9.74-1.67,19.43-4.81,29.53-2.36,4.93,1.19,9.89.41,14.87.32,13.19-.23,26.31-3.58,39.61-.5,5.29,1.23,9.15,2.89,12.2,8,4.4,7.43,3.91,14.81,2.83,22.6-.75,5.39-2.4,10.39-6.11,14.48-6,6.57-12.27,12.52-21.22,15.14-4.32,1.27-8.5,2.65-13.05,2.88-3.87.19-5.64,1.51-4.78,6.31a318.58,318.58,0,0,1,4.55,42.5c.35,8.3-3.05,15.88-4.71,23.8-.63,3-.52,5,3.58,3.84,13.45-3.73,26.85-2.91,40.14.87a48.76,48.76,0,0,0,13.76,1.65c3.3,0,4.91-.59,5.5-4.49s.38-7.94,1.19-11.86c2.71-13.12,5.44-26.23,9.59-39,3.13-9.59,4.42-20,9.27-28.76,12.75-23.11,25.11-46.41,36.73-70.1a21.6,21.6,0,0,1,3.06-4.49c6.84-7.92,14-15.57,20.53-23.76,3.53-4.44,8.36-8.19,9.48-14.28,2.82-.76,4.16-3.16,5.8-5.22,3.08-3.9,5.91-7.88,10.06-10.93,13.78-10.12,27.86-19.83,40.75-31.14,7.43-6.52,14.8-13.25,24.51-16.73a171.5,171.5,0,0,0,22.78-10c21.67-11.54,42.7-24.34,65.73-33.15,3.78-1.45,4.3-3,2.19-6.4a285.22,285.22,0,0,1-33.48-79.58c-3.89-15.25-9-30.21-14.1-45.11-7.92-23.14-20.25-44.42-28.68-67.4-3.11-8.46-3.55-16.47-2.24-25.23a17.55,17.55,0,0,1,6.41-11.7c10.67-9,15.76-21.65,22.51-33.25,1.44-2.48.7-3.23-1.81-3.4-14.4-1-28.8-2-43.18-3.1-6.16-.49-12.37-.42-17.43-5.44-8.16-8.07-16.52-16-25.38-23.28-11.45-9.41-19.34-21.16-25.79-34.28-3.49-7.12-7.1-14.27-11.74-20.78a31.91,31.91,0,0,0-1.75-4.11c-13.88-23.77-27.18-47.92-44.33-69.62-6.77-8.57-12.07-18.47-20.2-25.76-18.33-16.43-36.52-32.92-52.52-51.75-8.2-9.65-16.24-19-19.42-31.77-1.84-7.35-5-14.36-7.51-21.56-.64-1.85-1.45-3.68-1.31-5.78.74-11.59.33-23.38,2.32-34.75,4.83-27.8,11.16-55.33,16.09-83.11,2.58-14.51,7.68-28.75,5.68-44-1.18-9-1.46-18.16-2.37-27.23-1.53-15.18-1.55-30.1,5.37-44.3,3.32-6.82,6.94-13.65,7.65-21.38.43-4.59,2.18-8.58,4-12.7,8-18.21,16.46-36.17,22.62-55.17,3.29-10.14,5.67-20.76,11.92-29.85,7.52-10.93,14.48-22.26,22-33.17A57,57,0,0,0,466,755.08c1-5.69,2.39-11.3,3.52-17,3.06-15.38,7.25-30.52,9.62-46.05,1.32-3,2.74-6,3.95-9.09,11-27.89,19.06-57,33.54-83.48a19.07,19.07,0,0,1,5-6c4.52-3.6,10.45-5.93,13.07-11.34,3.88-8,7.31-16.11,6.5-25.66-.87-10.25.22-20.66-.45-31-.76-11.73,1.17-23.17,3-34.54,2.58-16.05,7.4-31.68,13-46.89,8.27-22.46,12.56-45.63,15.24-69.24.56-4.9-.42-7.73-5.93-9.35A338.73,338.73,0,0,1,530,352.88c-5.18-2.2-10.18-4.88-15.78-6-17.44-11.26-34.68-22.7-49-38.07a196.32,196.32,0,0,1-40.65-65.62C411.39,207.87,398.4,172.42,388.4,136c-4-14.62-7.81-29.1-6.36-44.44.45-4.8.65-9.62,1-14.43.17-2.66-.8-4.32-3.72-3.81-6,1.06-12.19,1-18.19,2.39C342.48,80,323.71,80,304.71,78.54c-10.76-.85-21.27-3.66-32.12-3.48-7,.12-7,.26-6.4,7.3,1.44,15.81,2.31,31.33-1.87,47.25C252.9,173,240.31,216,223.87,257.75c-9.71,24.66-24.52,46.17-43.61,64.74-11.63,11.31-25.11,20.09-38.27,29.34a8.08,8.08,0,0,0-1,.24c-17.92,7.35-35.59,15.35-54.07,21.27-1.84.58-2.83,1.88-2.25,4.27.77,3.21.87,6.57,1.39,9.84C88.37,401.66,90,416,94.85,429.69c4.31,12.2,8.56,24.42,12.84,36.64C114,484.38,119,502.84,119.93,522c.79,16.09-.22,32.31,1.37,48.36.84,8.52,4.36,16.53,11.53,22.32,5.19,4.18,11.09,7.14,14.72,13.64,9.52,17.06,16.11,35.3,23.53,53.23,5.06,12.24,9.2,24.85,15.19,36.7a16.68,16.68,0,0,0,.22,2.47q7.08,28.89,14.23,57.76c1.31,5.27,1.82,11.08,4.44,15.63,4.87,8.45,11.19,16,16.59,24.21,5.86,8.82,13.58,16.65,17.31,26.61,9.95,26.57,20.4,52.9,33.48,78.11a21.6,21.6,0,0,1,2.43,7.52,44.8,44.8,0,0,0,6.32,18.68c11.46,18.59,9,38.93,8.26,59.12-.47,13-2,25.84.62,39.09,8.05,41.15,21.16,81.27,25.19,123.25.87,9,2.51,17.92-1.28,26.8-6.09,14.3-7.52,30.35-18.87,42.71-14.14,15.42-26.57,32.36-42.53,46.16-6.77,5.84-13.5,11.9-18.82,19.22-16.19,22.31-32.34,44.64-45,69.26-4.45,8.69-10.68,16.48-13.23,26.13-2,.75-2.34,2.71-3.14,4.27-4.33,8.42-8.66,16.83-12.83,25.33a67,67,0,0,1-14.85,20.36c-11.26,10.34-22.06,21.18-33,31.84a7.34,7.34,0,0,1-4.71,2.35c-8.9.84-17.77,1.87-26.65,2.88-8.54,1-17.07,2-25.62,3-2,.22-3.64.71-2.25,2.94,6.63,10.68,11.12,23,21.49,30.92,10.16,7.71,10.52,18.65,9.46,29.13-.85,8.38-4.27,16.78-7.91,24.53-15.93,34-27.38,69.42-36.61,105.68-2.69,10.59-4.59,21.49-8.91,31.55A384.37,384.37,0,0,1,10,1734.89c-2.31,4-1.6,5.49,2.58,7.13,11.41,4.47,23,8.71,33.86,14.34,16.19,8.41,32,17.52,49.15,24,7.53,2.82,15.09,5.62,21.63,10.93,11.58,9.41,23.14,18.87,35.6,27.16,9.77,6.51,20.07,12.51,26.9,22.6C180.78,1842.59,181.65,1844.59,183.86,1845.12Zm852.81-411.23c5.18,4,8.17,9.88,13.92,12.16a71.56,71.56,0,0,1,29.19,21.5A923.37,923.37,0,0,1,1138,1548.1c9,13.88,18.42,27.51,27.39,41.41,9.22,14.28,13.46,30.78,20,46.24,11.2,26.37,19.19,53.56,19.46,82.53a6.76,6.76,0,0,0,.82,3.28c5.16,9.59,9.43,19.64,15.66,28.68a43.36,43.36,0,0,1,7.42,17.6c1.36,8.52,1.49,17.23,2.18,25.86s.6,17.39,2.25,25.82a442.46,442.46,0,0,0,23.13,79.84c4.47,11.16,7,23.18,12.45,33.81,15.88,31.28,35.62,60.63,46.57,94.34.65,2,1.49,2.84,4,2.11,17.24-5.1,35.29-6.67,52.53-11.77,4.41-1.31,9-.06,13.3-1.44,6.09-1.94,12.26-3.3,18.67-2.24,3,.5,3.73-.55,3.45-3.44-.86-9-2.12-17.94-2.11-26.9.07-45.33-.24-90.64-2.23-135.92-.45-10.1-1.44-20-5.56-29.72-9.8-23-18.93-46.23-24.76-70.64-2.21-9.23-5.19-18.26-7.85-27.38a123.86,123.86,0,0,1-4.35-48c.48-4.67,2.51-9,2.48-13.7-.18-25.31-.1-50.59,3-75.78,1.59-13,1.36-26.44,4.27-39.14,7.61-33.17,14.63-66.53,25.17-99a25.92,25.92,0,0,0,1.4-7.31c1.08-41.85.31-83.61-5.11-125.21-2.25-17.18-3.73-34.45-6-51.63-.62-4.73-.46-7.74-6.31-8.33-21.48-2.16-42.91-4.71-64.36-7.18-13.36-1.54-26.73-3.09-40.07-4.82-12.51-1.63-25-4.71-37.48-5-19.47-.44-38.91-.8-58.24-3.26-3-.38-3.73.75-4,3.13-2,19.35-7.55,38-11.28,57-3.78,19.23-9.78,37.51-24.79,51.4a37.16,37.16,0,0,0-5.19,6,458.89,458.89,0,0,1-46,55.65,36.55,36.55,0,0,1-9.84,7.44C1064.48,1419.48,1050.92,1426.54,1036.67,1433.89Zm.36-422.55c7.58,4.37,14.52,8.95,21.94,12.52,24.44,11.76,42.49,30.82,59.38,51.21,9,10.87,16.76,22.78,26.52,33,8.52,8.93,12.94,19.67,16.27,31.25,4,14,5.45,28.56,8.81,42.71a177.19,177.19,0,0,1,4.21,29c.22,3.13.62,5.35,5.23,4.15,6.54-1.71,13.38-2.31,20.12-3.2,17.17-2.26,34.54-.26,51.75-2.87,18.43-2.78,37.1-3.42,55.71-4.52,23.71-1.41,47.33-3.68,70.91-6.55,4.31-.53,7.33-1.27,6.27-6.62-.27-1.39.33-3,.54-4.44,4.38-30.35,7.71-60.82,10.66-91.33,2.64-27.41,1.64-54.94,1.94-82.43a21.6,21.6,0,0,0-1.59-7.77,137.33,137.33,0,0,1-6.23-21.93c-6.22-32-17.23-63-19-95.88-1.28-23.4-5-46.67-3.64-70.23.51-9.29,1.43-18.89-.25-27.89-3.26-17.45-3.3-34.8,1.74-51.45,9.45-31.2,17.12-63,31.11-92.77,3.38-7.17,7.39-14.33,8.83-22.21a222.9,222.9,0,0,0,3.33-49.76c-.91-21.09-3.25-42.15-4.12-63.26-.68-16.42-3.69-32.79-1.48-49.31.79-5.93,1.28-11.9,2.24-17.8.44-2.71-.59-3.19-2.89-3.91-11.28-3.56-23.26-3.83-34.5-7.53-4.88-1.6-9.65-3.71-14.86-4.17-8.37-.73-16.34-3.23-24.25-5.78-3.32-1.07-4.62-.42-5.75,2.7-6.91,19.14-16.61,36.89-26.56,54.6-9.12,16.21-19.8,31.65-26,49.41-8.08,23.19-18.81,45.43-25,69.3-2.86,11-6.19,22-8.06,33.24-1.91,11.44-2.57,23.13-3.29,34.74-.69,11.23-2.13,22.32-8.58,31.72-5.36,7.82-9.49,16.25-14.32,24.32a28.51,28.51,0,0,0-4.17,16.55c.34,6.88-1.27,13.54-2.6,20.2-4.66,23.44-13.53,45.45-23.2,67.18-4.28,9.62-6.83,20.18-12.79,28.86-27,39.35-53.21,79.27-83.71,116.15-8.89,10.75-19,20.12-31,26C1048.89,1000.35,1043.16,1005.21,1037,1011.34Zm754-851.69c.32-22.5-1-44.83-7.17-66.62-1.58-5.64-1.86-11.45-5.81-16.65C1767.86,63,1755.54,52,1742.27,41.86c-3.32-2.54-5.51-2.88-9-.36-17.82,12.9-37.27,21.55-59.53,23.87-16,1.68-32.08,2.82-48.14,3.61-20.14,1-39.93-2.33-59.69-5.93C1549.07,60,1533.65,54.57,1522,41.3c-.43-.5-1-.93-1.43-1.4-1-1-2-.86-3,.11-6.87,6.52-14.91,12.18-20.43,19.69-14.89,20.25-25.09,43-29.33,67.83-2.26,13.21-3.82,26.67-3.56,40.15.47,24.64,1.23,49.27,2,73.89.85,28.45-2.36,56.6-10.78,83.61-8.34,26.77-14.42,54.1-22.5,80.91-1,3.3-.1,4.05,2.84,5.13,30.18,11,61.48,13.77,93.23,12.41,9.75-.42,19.21.72,28.7,2.17,3.93.6,5.76-.27,6.39-4.37.55-3.55,2.38-6.93,2.79-10.49,1.38-11.95,6.82-20.18,19.23-22.67a12.28,12.28,0,0,0,2.26-1c7.32-3.06,14.41-7.72,22-8.79a118.52,118.52,0,0,1,38.8,1.11c35,6.81,68.86,17.72,99,37.62,3.7,2.44,6.34,2.56,9.56-.15,3.58-3,7.52-4.31,12.33-2.82,11.15,3.44,22.68,2.83,34.14,2.85,2.14,0,3.85.1,3.77-3-.19-7.32-.37-14.69-1.87-21.81-3.8-18-7.45-36-9.18-54.4-1.32-14.05-2.83-28.09-4.38-42.11-2-17.86-3.94-35.75-3.71-53.71C1789.2,214.57,1790.27,187.11,1791,159.65Zm-410.24-17c1.12-10.68-.93-22.89-2-35.13-.9-9.85-1.52-19.77-5.75-29.11-4.38-9.65-7.36-20-12-29.46-7.58-15.44-19-27.93-32.18-38.94-2.41-2-3.55-1.92-5.59.22-7.16,7.51-15.35,13.5-25.26,17.15a92.72,92.72,0,0,1-12.44,3.11c-18,3.91-36,7.22-54.46,7.52-18.8.32-37.52-1.49-56.2-3.16-6.67-.6-13.48-1-20-3.15C1138.51,26.42,1123,19.64,1109.38,9c-1.44-1.13-2.47-1.21-3.88,0-10,8.53-21.57,15.15-29.56,25.88-4,5.31-10.08,9.42-11.85,15.83-3.6,13.07-7.58,26.33-8.68,39.73a413.61,413.61,0,0,0-1.25,53.41c1.28,26.75,2.91,53.5,1.78,80.29-.45,10.79-1.33,21.57-2.38,32.31-1.32,13.55-2.94,27.07-4.56,40.58-1.89,15.8-2.53,31.78-6.56,47.29a173.39,173.39,0,0,0-5.39,37.85c-.06,1.62-.83,4,2.27,3.88,8.46-.34,17,.81,25.39-.79,8.94-1.69,18.07-5.05,26,2.85,1.64,1.64,3.06,0,4.39-.82,7-4.07,13.61-8.88,21-12.32,31.5-14.64,63.78-26.58,99.06-27.51,8-.21,16.26-2,24.13,1.37,9.89,4.24,19.74,8.56,29.69,12.64,3.32,1.35,5.22,3.24,6.06,6.87,1.7,7.39,4.09,14.61,5.86,22,1,4.17,3,5.14,7.16,4.37,6.35-1.18,12.87-2.56,19.23-2.24,14.17.71,28.27.1,42.42-.29,21-.57,41-5.85,60.72-12.29,1.77-.58,2.77-1.31,2-3.61-6.52-19.68-9.43-40.33-16-60-10.39-31-17.33-62.59-17.52-95.49C1378.77,195.28,1380.85,169.86,1380.79,142.7Zm-359.6,958c0-2-.07-2.81,0-3.64.37-3.71-.48-4.94-4.21-2.69-4.81,2.91-9.86,5.44-14.85,8-2.16,1.13-4.08,2.63-6.85,2.62-8.8,0-17.6.35-26.4.72-20.58.86-41.24-.56-61.81,2.09-4,.51-8.21.89-12.35-.51-12.37-4.18-24.75-8.36-37.26-12.09-17.6-5.26-34-13.76-51.74-18.7-3.57-1-5.13-.24-6.41,3-3.67,9.27-7.42,18.5-11.37,27.64-1.09,2.52-.73,3.59,1.64,5.09a150.6,150.6,0,0,0,25.21,12.76c7.67,3.06,15.7,5.36,22.58,10.15a11.72,11.72,0,0,1,3.24,15.92c-3.15,5.07-6.41,10.07-9.28,15.29-11.3,20.49-19.36,42.49-29.48,63.53-8,16.6-15.66,33.37-29.82,46-1.83,1.64-3.38,2.45-5.7,1.8a151,151,0,0,1-16.06-4.93,314.24,314.24,0,0,0-30.45-10.47c-2.52-.72-4.21-.74-5.33,2.34-4.14,11.37-9.08,22.43-12.8,34-1.27,3.95-.25,5.14,3.29,6.3a283,283,0,0,1,49.72,21.24c23,12.73,40.1,30.75,50.3,55.16,8.82,21.1,15.81,42.84,22.57,64.63,11.08,35.69,21.8,71.43,20.76,109.56-.55,20.43-1.21,40.67-5.91,60.72-8.64,36.91-20.82,72.68-33.41,108.35-9.87,28-27.1,49.81-53.35,64.33a313.51,313.51,0,0,1-50.94,22.11c-3.34,1.14-4.17,2.58-3,6.17,3.69,11.39,8.66,22.26,12.74,33.48.93,2.57,2,3.59,5.15,2.63,7-2.12,14-4.08,20.77-6.63,8.19-3.07,16.25-6.55,24.86-8.35,2.22-.47,4.41-1.4,6.44.81,5.4,5.85,11.13,11.35,15.31,18.3a359.12,359.12,0,0,1,18.49,36.25c11.4,25,21.25,50.72,36.77,73.62,1.08,1.58.73,3,.38,4.68-1.32,6.45-5.91,9.59-11.4,12-13.89,6.16-28.66,10.43-41.34,19.23-2.29,1.59-3.19,2.65-1.91,5.48,3.22,7.11,6,14.4,9,21.6,4.25,10.16,4.5,10.76,14.94,6.78q41-15.59,82.83-28.7c1.86-.58,3.61-1.58,5.73-1.32,14.68,1.77,29.4,3.22,44.2,2.75,17-.54,33.91,1.4,50.88,1a8.8,8.8,0,0,1,4.66,1.4c5.79,3.24,11.63,6.4,17.54,9.42.91.47,3.23,2.54,3.24-.38,0-4.94,1.57-10.27-3-14.48-10.69-9.83-17.72-22.41-25-34.68-8.49-14.24-17.15-28.39-22.91-44.14-6.88-18.83-9.92-38.91-18.82-57.09-3.77-7.69-3.86-8-12.27-6.87-.65.09-1.28.38-1.94.43-7.65.53-15.29,2.23-22.78-1.54-5.9-3-12.45-4.34-18.8-6.18-3.47-1-7.09-1.61-10.3-3.47-12.42-7.21-24.18-15.2-33.16-26.67-.9-1.15-2.2-2-1.86-3.82,1.68-9.06,2.87-18.19,7.05-26.67,18.38-37.27,33.1-76,46.3-115.4,4.61-13.78,9-27.63,10.54-42.22.46-4.35-.83-6.7-5.11-8-3.75-1.18-7.17-3.36-10.82-4.89-3-1.27-4-3.37-4.18-6.57a192.8,192.8,0,0,1,.06-26.33c.87-13-1.4-25.94-.82-38.88.38-8.64.89-17.25.87-25.9,0-10.44-1.28-20.87-.09-31.33.31-2.67.77-4.75,3.51-6,4.38-2,8.43-4.65,13.09-6,2.6-.75,3.58-2.29,3.53-5.12a71,71,0,0,0-2.63-17.18c-11.23-42.28-27.36-82.8-44.77-122.82-6.38-14.66-15-28.38-16.17-45a7.8,7.8,0,0,1,2.34-6.47c13.07-14.9,28.53-26,48.15-30.72a122.76,122.76,0,0,0,15.49-5.25c4.27-1.65,8.35-2.4,13-1.37s9.89.9,14.84,1.33c2.4.21,4-.4,5-2.93,3.5-8.41,7.52-16.54,9.9-25.46,4.53-17,8.69-34.22,16.87-49.85,11.79-22.51,23.48-45.21,41.05-64C1020,1106.7,1021.87,1103.77,1021.19,1100.73Zm423.53,112.07c16.66,1,34.31,3.4,51.85,2.81,32.47-1.1,64.92-1.47,97.39-1.37a7.49,7.49,0,0,0,6.07-2.51c10.07-10.63,20.84-20.4,35.1-25.15,7.2-2.39,11.84-7.48,15.49-13.7,1.58-2.69,2.74-5.64,4.06-8.47,4.92-10.53,5-10.62-4.53-17.5-2.27-1.63-2.61-2.82-1.82-5.56,3.69-12.7,7.24-25.45,7.78-38.79.38-9.15,1.14-18.28,1.41-27.43.5-16.81,1.82-33.61,1.08-50.43-.66-14.8-1.68-29.58-2.68-44.36-1.29-19-2.05-38.1-5.57-57-3.38-18.09-5.66-36.38-8.47-54.58-2.75-17.8-3.67-36-11.41-52.74a5.64,5.64,0,0,1-.51-2.88c1.26-10.54,1.13-21.26,4.26-31.54,3.06-10,5.1-20.2,4.57-30.82-.45-9-.51-18-.55-27-.1-26.45,1.51-52.85,3-79.24q1.47-26.91,3.71-53.79c1.41-16.73,3.45-33.4,5-50.12,2-21.5,4.48-42.94,7.64-64.29.54-3.6-.35-4.58-3.7-5-11.45-1.49-23.26-.77-34.07-6.27-3.58-1.82-6.24,0-7.66,4.37-12,36.88-24.24,73.65-36.27,110.5-8.72,26.72-19.6,52.73-26.47,80-3.13,12.43-5.73,25.19-5.82,37.92-.12,16.94,2.37,33.86,3.94,50.77,1,11.09,2.8,22.5-.51,33.29-4.89,16-5,32.15-4.67,48.48a29,29,0,0,1-1.2,8.82c-8.12,28.18-18.82,55.46-28.9,83-6.3,17.16-11,34.9-19.24,51.36-19.31,38.44-32.14,79.22-41.74,121-5.77,25.1-6.38,50.85-6.5,76.54C1444.67,1184.93,1444.72,1198.73,1444.72,1212.8Zm105.33,513.63c-.08,6.18-1,14.79-1.76,23.42-1.2,13.77-3.7,27.68-2.76,41.32,1.2,17.34,4.15,34.73,9.86,51.37,20,58.22,40.75,116.19,59.45,174.86,1.93,6.06,3.76,7.23,9.81,4.65a66.84,66.84,0,0,1,25.71-5.06c2.64,0,5.28-.68,7.92-1,2.17-.25,2.59-1.32,2.32-3.42-2.85-22.42-5.71-44.83-8.35-67.27-1.93-16.34-3.82-32.7-5.2-49.09-1.42-16.91-2-33.88-3.28-50.81-2.16-29.73-3.67-59.47-3.61-89.29,0-12.92,1.63-25.87-1.12-38.79-1.83-8.55-5.31-16.71-5.76-25.59-.47-9.48-3.2-18.89,1.58-28.26,4.11-8,4.88-17.18,6-26,2.46-19.77,5.63-39.44,8.52-59.14,2-13.62,5-27.08,5.82-40.88.79-14.13,1.83-28.24,2.63-42.37.77-13.79,2.18-27.61,1.9-41.39-.68-33.74-1.3-67.59-8-100.8-1.81-8.94-.14-13.87,7.94-17.06,3.08-1.22,2.18-2.66.54-4.7-5.08-6.3-11-12-14.4-19.56a10.26,10.26,0,0,0-6.48-5.65c-15.87-5.47-30.26-13.34-41.25-26.4-2.11-2.51-4.1-2.42-6.68-1.11-14.79,7.51-30.73,8.39-46.6,6.32-31.84-4.15-63.73-7.14-95.81-8.14-3.88-.12-5.53.15-5.31,4.79.71,15,1.15,30,1.18,45,.07,49.38,13.05,96.05,29.4,142.05,9.36,26.35,23.66,50.6,32.43,77.25,11.28,34.29,25.55,67.55,35.88,102.19a34.24,34.24,0,0,1,1.39,9.8c0,14-1.24,28.06,3.19,41.65C1549.76,1707.36,1550.4,1715.57,1550.05,1726.43ZM1835,777.93c-.09-.73-.11-1.06-.17-1.39-3.77-20.41-13.78-38.34-22.49-56.8-.54-1.13-1.18-2-2.68-1.23-5.46,2.78-11.41,4.68-16.21,8.65-11,9.14-19.06,20.82-26.67,32.72-15,23.39-28.67,47.57-41.94,72-16.92,31.1-34,62.12-43.13,96.71-6.77,25.65-8.17,51.33-1.77,77.27,7,28.34,19.36,54.43,33.81,79.51,20.17,35,40.32,70.11,65.31,102.07a105.54,105.54,0,0,0,31.2,26.76c2.34,1.33,3.54,1,4.63-1.41,2.48-5.44,5.48-10.67,7.62-16.24,4.74-12.31,11.54-23.88,12.29-37.63.49-8.84,1.15-8.91-6.63-13.27-8.39-4.7-16.31-10.44-21.41-18.36-16.87-26.19-37-49.5-58.69-71.75-10-10.3-19.66-21.13-26.7-34-4.9-9-7.76-18.68-11.34-28.12-5.56-14.66-7.88-29.62-3.66-45.33,3.84-14.26,10.77-27.14,16.5-40.55,2.72-6.39,4.83-13.15,9.12-18.76,13.36-17.48,27.74-34.08,42.72-50.18,6.75-7.26,13.9-14.13,16.72-24.28,2.53-9.1,7.63-15.82,16.28-21.28,8-5,14.75-11.51,24.63-12.59C1833.84,780.21,1835.31,779.64,1835,777.93ZM836,808.27c.74,6.94,1.18,13.92,2.28,20.8,4.32,27,13.81,52.3,26.13,76.55,8.36,16.45,16.95,32.79,26,48.89,15.67,28,31,56.22,50.32,82a65.91,65.91,0,0,0,28.75,22.26c1.87.75,3.09.55,4-1.41,8.38-18.22,18.48-35.74,22.07-55.88.54-3-.38-4.14-2.91-4.36-9.27-.81-16.54-5.31-22.86-11.82a14.23,14.23,0,0,0-4.52-3.06c-5.45-2.31-8.19-6.57-10.41-11.91-3.33-8-5.54-16.52-11.88-23.23q-17.84-18.89-34.66-38.69c-6.67-7.82-14-15.35-18.56-24.65C883.05,870.05,877.06,856,871,841.92a74,74,0,0,1-5.94-26.08c-.82-18.85,7-35.58,13.7-52.52,6.49-16.51,18.65-29.15,30.56-41.59,17.53-18.31,34.68-36.85,49.1-57.75,5.57-8.06,10.41-16.55,18.12-23a124.72,124.72,0,0,1,15.6-10.67c1.75-1.07,4.17-1.81,3.82-4.64-.78-6.27-.07-12.86-2.26-18.77a381.6,381.6,0,0,0-18.45-42.51c-1-2-1.78-2.24-3.68-1.17a107.35,107.35,0,0,0-31.66,27.07c-18.75,23.68-34.26,49.5-49.76,75.32-14.29,23.81-28.21,47.78-38.67,73.61C842.51,761.38,836.32,784.15,836,808.27ZM735.66,257l-.55,1.05c1.36,1.18,2.75,2.33,4.09,3.54A155.5,155.5,0,0,0,777,287c1.47.68,3.28,1.09,4,2.79,3.71,9,8.75,17.78,10.68,27.18,2.45,11.93,2.31,24.38,3.37,36.6.88,10.07,2.56,20.13,2.62,30.2.07,11.24,1.29,22.79-6.53,32.86-6,7.69-12.44,15.7-15.67,24.66-12.08,33.42-27.86,65.05-44,96.58-5.06,9.89-11.1,19.38-14.69,29.91-4.83,14.2-9.61,28.48-12.42,43.26-1.38,7.27-4.17,14.36-4,21.85.21,7.29,1.72,14.58,1.51,21.83-.51,17.87.92,35.37,6.07,52.59,4.26,14.22,6.73,29.09,12.18,42.8,7.07,17.82,16.17,34.85,24.64,52.09,8.93,18.15,19.28,35.62,26.06,54.77,4.21,11.9,9.13,23.39,16.18,33.93,3.23,4.82,5.93,10,9.09,14.85a13.26,13.26,0,0,1,2,7.48c.14,11-1.57,21.92-.32,32.91,1.6,14.15-3.63,27.44-5.25,41.18-.75,6.36-3,12.66-2,19.11a89.42,89.42,0,0,0,3.91,15.84c1.57,4.38.38,6.23-3.72,7.9-14.42,5.85-26.78,15-38.43,25.11-1.17,1-3.59,1.64-3,3.55s2.89.91,4.4,1c4.16.19,8.34-.09,12.49.23a9.57,9.57,0,0,0,7.71-2.66c9.61-9.22,21.09-15.4,33.25-20.41,3.84-1.58,5.14-3.94,4.92-8-.89-16.46-.38-32.91,4.06-48.87,4-14.3,4.07-28.79,3.92-43.4-.09-7.66,0-15.33.44-23a14.83,14.83,0,0,0-1.84-8.91c-6.75-12-15.78-22.73-20.31-35.79-7.81-22.49-18.83-43.43-29.34-64.67-12.74-25.75-27.15-50.82-33.62-79.27-3.22-14.15-8.51-28-9.92-42.34-1.59-16.13-1.09-32.53-2.38-48.78-.64-8.05,2.36-15.66,4-23.38C730.66,594,735,577.46,742,561.88c5.31-12,11.78-23.39,17.69-35.09,10.66-21.11,22.07-41.95,30-64.25a174.54,174.54,0,0,1,23.41-45.15c2.14-2.93,5-5.95,5.6-9.27,1.58-9.28,2.38-18.74,1.14-28.18-1.86-14.25-3.88-28.49-5.8-42.73-1.93-14.43-3.27-29-11.76-41.6a25.17,25.17,0,0,1-2.84-5.77c-1.24-3.54-3.78-5.69-6.9-7.46a238.72,238.72,0,0,1-31.08-20.55c-2-1.56-3.73-3.42-6.4-3.6C748.57,257.78,742.12,257.42,735.66,257ZM1824,351a130.33,130.33,0,0,0,2,29.43c2.35,12.8,5.07,25.29,13.55,35.86,7.66,9.56,18.15,13.16,29.52,8.15,19.12-8.41,32.23-22.53,37.22-43.11,2.4-9.93,5.45-19.81,4.49-30.4q-2.81-31.31-6.7-62.47c-2.22-17.72-1.81-35.65-.69-53.38.82-13.15-1.32-25.34-5.35-37.56a21.13,21.13,0,0,0-5.33-8.13c-5.53-5.84-11.83-7.78-19.92-7.59-7.42.18-13.41,3.33-19.86,5.77-9.33,3.53-13.78,12.11-16.26,20.19-2.87,9.31-3.54,19.54-3.91,29.56-.55,14.62-1.31,29.22-3,43.79C1827.06,303.7,1823.42,326.24,1824,351Zm114.11,787c-.33-7.8.27-15.61-.65-23.43-2.32-19.81-4.25-39.66-6.55-59.46-1.68-14.39-.64-28.89-2.68-43.32-1.57-11.17-4.4-21.27-11.9-29.85a12.82,12.82,0,0,0-4.21-3.38c-8.92-4.14-17.82-7.83-28.14-6.74-6.62.71-17,7.84-19.22,14.16-4.43,12.5-7.2,25.19-5.82,38.58.49,4.79.49,9.63.6,14.46.6,26.85-3.06,53.38-6.06,80-1.12,9.91-3.42,20.13-2,29.77,2.36,16.58,4.91,33.53,16.88,47,11,12.34,23.33,21.17,40.76,20,1.47-.1,2.92.07,4.29-.89a44.93,44.93,0,0,0,16.53-20.64C1936.94,1176.23,1939,1157.33,1938.07,1138ZM1911.7,848h-.52c0-32-.06-63.93,0-95.89,0-9.15.38-18.31.79-27.45.13-3-.31-4.29-3.76-4.86-7.79-1.27-15.29-.28-22.68,1.81-8.72,2.48-17.34,3.16-25.81-.56-3.57-1.56-4.91-.51-5.77,3-2.29,9.47-2.67,19.16-2.78,28.76-.64,58.11-.15,116.22.91,174.33a196.58,196.58,0,0,0,2,21.34c.23,1.8-.18,5.41,3.82,4.06,8-2.71,15.73-1.25,23.47,1.11A55.66,55.66,0,0,0,1908,955.2c3.13-.57,4.33-1.64,4-4.84-1.06-9-.44-17.93-.35-26.91C1911.86,898.3,1911.7,873.15,1911.7,848Zm-108.21,617.8c6.15.46,13-.36,19.9-1.72,4.17-.82,5-2.64,4.32-6.45-1.41-7.46-2.82-14.94-3.66-22.47-.39-3.61-1.8-4.14-5-4.3-11.54-.58-23,2.13-34.68-.69-10.6-2.56-21.54-4-31.07-9.52-7.56-4.38-14.7-9.45-18.37-18.17-3.52-8.39-7.54-16.58-11.73-24.65-4.75-9.16-4.4-18.9-3.28-28.52,1.47-12.66,5.89-24.65,10.07-36.67s10.17-23,20-30.92c12-9.7,25.16-17.82,40.87-20.36,10.83-1.75,21.56-5.49,32.72-1.69,2.79.95,3-1.47,3.17-3.19.51-5.11.73-10.25,1.22-15.37.32-3.43-.74-4.61-4.43-4.38-9.78.61-19.61,1.3-29.38.93-11.29-.44-22.39-.61-33.68,1.12-14.43,2.2-27.53,7.79-39.47,15.28-16.15,10.13-24.14,26.93-30,44.38a297.92,297.92,0,0,0-11.86,51c-2.48,16.73.16,32.74,5.91,48.11,6.37,17,15,32.86,32.86,40.9.43.2.74.67,1.13,1,12,9.15,25.37,16.63,39.42,20.81A136.85,136.85,0,0,0,1803.49,1465.8ZM960.5,317.28c-8.52-1.23-17.2.64-25.85,2-9.37,1.46-18.71,2.57-27.62,7.06A300.82,300.82,0,0,0,864.67,352c-2.81,2.06-6.56,3.63-8.14,6.41-5.54,9.78-11.66,19.44-14.65,30.38-2.81,10.31-6.82,20.54-5.74,31.52,1.13,11.5,2.28,23,4.67,34.37,4.47,21.24,11.33,41.39,22.56,60a20.51,20.51,0,0,0,2.5,2.9c9.15,10.13,20.82,16.31,33.24,21.13,13.69,5.31,27.88,7.91,42.69,6.77a113.61,113.61,0,0,1,20.45-.15c6.84.71,13.63.49,20.44.71,1.7.05,3.54.21,3.29-2.39-.58-6.1-1.22-12.2-1.8-18.3-.18-2-1.23-2.81-3-2.07-5.14,2.16-10.28,1.33-15.61.91-18.22-1.43-34.9-6.78-50-17.18-8.63-5.93-16.38-13-21.17-22.08-6.45-12.26-10.64-25.57-14.25-39-4.75-17.65-4.47-34.53,5.73-50.55,3.08-4.84,4.91-10.48,7.28-15.77,3.65-8.14,10.59-13.23,17.87-17.31a64.45,64.45,0,0,1,22.8-7.86c9.32-1.27,18.42-4.6,28-3.15,5.14.78,10.29.54,15.44.84,3.28.2,4.32-1.25,4.74-4.2q1.72-12,3.83-24c.51-2.9-.38-4.25-3.29-4.88A70.86,70.86,0,0,0,960.5,317.28Zm926.41,1672.43c.31,6,.39,13.69,1.21,21.28.88,8.23,1.05,16.58,3.55,24.61.79,2.57,1.22,3.17,4.32,2.23,6.38-1.93,13.08-4.91,19.81-2.54,7.33,2.59,15,2.86,22.42,4.49,4.38,1,5.63-.93,6-5.29,1-14.31.37-28.58-.07-42.89-.82-27.1-1.6-54.22.63-81.31a38,38,0,0,0-3.89-20.78c-1.18-2.3-2.1-2.41-4-1-4.86,3.78-9.82,7.42-14.69,11.19-2.77,2.14-5.42,2.72-8.63.69-5.2-3.28-10.64-6.18-15.85-9.43-2.3-1.44-3.49-1.07-4.51,1.38-2.39,5.78-4.1,11.68-2.58,17.93,2.61,10.69,2.28,21.31.58,32.13C1888.81,1957.54,1887,1972.74,1886.91,1989.71Zm-449.26-681h-1.92q-.74,29.14-2.66,58.23c-.67,9.94-.82,20,2,29.8,8.78,30.56,16.23,61.54,29.55,90.63,5.55,12.11,11.32,24.24,15.47,36.85,13.16,40,28.63,79.28,42.06,119.23a97.66,97.66,0,0,1,5.24,29.32c.18,8.47-.73,17.11,1.73,25.35,4.4,14.73,3.43,29.59,2.37,44.6-1.76,25-3.4,50.08,1.1,75.1,3.24,18,10.58,34.68,15.73,52.05,15.1,51,34.77,100.42,50.5,151.18,1.69,5.46,5.1,3,7.84,2.54,4-.71,1.12-3.47.66-4.95-18.5-59.26-40-117.52-59.29-176.51-6.74-20.59-11.17-41.91-9.4-64.09,1-12.61,2.1-25.22,3.11-37.83.85-10.79,2.68-21.91-.29-32.34-4.22-14.84-4.63-29.84-5-45-.15-5.29-.18-10.48-1.84-15.74-8.19-25.88-17.58-51.33-27.21-76.68-6.56-17.25-10.82-35.33-19.17-51.92-20-39.63-33.44-81.59-43.67-124.57-5.18-21.75-6.55-44.12-6.82-66.49C1437.59,1321.25,1437.65,1315,1437.65,1308.72Zm-1.67-128,1.32,0c0-4.13.08-8.26,0-12.38-1.33-57.54,13.66-111.6,34.39-164.57,8.61-22,20.1-42.67,27.18-65.37,9.76-31.28,22.62-61.53,32.5-92.81a72.11,72.11,0,0,0,3.66-22c0-10.78-.67-21.66,2-32.31a126.19,126.19,0,0,0,3.06-13.62c2.09-15,0-30-1.75-44.82-1.28-11.23-3.12-22.78-2.45-33.7,1.15-18.48,4.06-37.1,10.21-54.84q21.76-62.72,42.45-125.8c5.43-16.6,10.84-33.21,16.12-49.87.41-1.31,2.22-3,.21-4.44-3.29-2.38-7.77-.71-9.1,3.26-10.2,30.49-20.3,61-30.66,91.45-9.6,28.22-17.62,56.95-27.69,85a158.68,158.68,0,0,0-9.47,48.37,448.26,448.26,0,0,0,2.13,58.38c.89,9.12,2,18.51-.26,27.38-3.26,12.76-4.21,25.59-4.2,38.61a72.45,72.45,0,0,1-4.41,25.44c-5.11,13.92-9.35,28.16-14.65,42-13.23,34.53-23,70.3-37.87,104.25-5.26,12.05-10.52,24.12-15,36.51-7.6,21-12.53,42.84-18.94,64.22-3.26,10.87-2.72,22.11-2.42,33.21.3,10.94,1.8,21.85,2.52,32.79C1435.46,1163.67,1435.63,1172.22,1436,1180.77Zm458.16,348.8c-1,11.51.88,22.25,1,33.08.08,8.94,1.2,17.87,2,26.8,1.21,13.7,2.68,27.38,3.77,41.08,1.2,15.06,1.95,30.15,3.19,45.2.67,8.17.93,8.14,9.12,7.28a24.83,24.83,0,0,1,3-.09c3.19.07,3.79-1.53,3.51-4.47q-2.06-21.29-3.74-42.61c-1.16-14.71-1.69-29.49-3.27-44.15a540,540,0,0,1-3.5-55.17c-.13-26.12-1.64-52.21-.68-78.38.9-24.43,1-48.9,2.53-73.3,1.15-17.86,3.48-35.64,4.69-53.5,1.14-16.87,2.06-33.76,4-50.56.19-1.65.1-3.31-1.71-3.6-3.6-.6-7.25-.83-10.89-1.17-1.81-.18-2.1.94-2.24,2.47-.58,6.44-1.46,12.85-1.93,19.29-1.12,15.39-1.88,30.81-3.12,46.19-1.43,17.84-3.65,35.64-4.73,53.5-1.17,19.09-1.64,38.23-2,57.35C1892.65,1480,1892.62,1505.11,1894.14,1529.57ZM942.28,154.68c-2.84-.62-5.2,1.25-7.86,1.47-4.14.34-9.11,5.87-9.65,9.91-2.09,15.41-4.33,30.79-6.36,46.21-.39,2.93-1.48,5.18-4.26,6.14-4.57,1.56-4.41,4.92-3.95,8.76.77,6.6,1.27,13.24,1.87,19.86,1.32,14.73.13,29.63,2.87,44.28a10.39,10.39,0,0,0,1.74,3.82c3.23,5.17,8.85,4.42,13.55,5.95,2.11.68,3.8.61,5.63-1.13,6.75-6.44,10.67-14.83,13.71-23.12,5.68-15.46,9.74-31.52,14.58-47.29.62-2,1-3.2-1.63-4-3.43-1-4.56-3.53-4.5-7.26.26-17.13.23-34.27.23-51.41,0-2.6,2.61-5.69-.85-7.7a36.52,36.52,0,0,0-7.79-3.18A63.52,63.52,0,0,0,942.28,154.68Zm-72.62,138c5.84,1.35,9.78-3.19,14.66-4.8a2.17,2.17,0,0,0,1.61-2.72c-1-3.62-.11-7.29-.33-10.93-.86-14.61-1.58-29.23.41-43.82.21-1.58.42-3.23,2.06-3.64,5.18-1.29,3.69-4.57,2.6-7.84-.63-1.86-1.09-3.79-1.78-5.64-6.65-18-9.23-37.47-19.39-54.35-7-11.59-7.9-12.5-20.71-8.72a9.29,9.29,0,0,0-6.86,7.58c-3.85,22.53-2,45.49-5.07,68.08-.27,2,.66,2.55,2.44,2.79,2,.27,4.27.82,4.51,3.24.72,7.1,2.63,13.95,4.2,20.87,2.32,10.28,2.11,21.06,6.81,30.89C859.11,292.57,859.37,293.05,869.66,292.63Zm1061.67,278.9c.66-5.67-3.22-8.89-6-13-3.54-5.24-7.63-5.06-12.64-3.92a9.31,9.31,0,0,1-3.43-.36c-1-.16-2-.72-2.74.3-3.5,4.78-9.3,7.85-10.52,14.38a4.73,4.73,0,0,1-2.45,3c-4.46,1.93-2.74,4.66-1.37,7.56,3,6.43,5.81,13.06,6.63,20.13.88,7.59.49,15.33,1.49,22.9.44,3.32-.38,5.41-2.88,6.46-3.09,1.31-2.52,3.14-2,5.54,2.26,10.9,4,21.82,3.54,33.08-.31,8.17-1.33,16.23-2.11,24.33-.3,3.14.79,4.64,3.42,6.27,4.37,2.72,9.14,2.52,13.86,3.11,8.56,1.09,10.84-1.16,11.9-9.82,2.31-18.78,3.37-37.72,7.59-56.24.87-3.78,3.18-8.4-2.73-10.7-.45-.18-.81-1.1-.86-1.7-.66-8.4-1.84-16.7-1.44-25.25A243.08,243.08,0,0,1,1931.33,571.53ZM1931,1789.59c-1.26-7.55-3.27-15.43-4.12-23.54-1.41-13.39-3-26.75-4.75-40.1-.54-4.24-4-6.62-8.37-6.2q-5.71.54-11.41,1.18c-5.49.62-8.86,4.58-8.44,10,.47,6.13,1.06,12.25,1.56,18.38a118.47,118.47,0,0,1-3.35,37.55c-.54,2.25-1.11,4.5,1.89,6.39,2.39,1.49,3.48,4.54,3.08,7.88-.92,7.55-1.14,15.21-2.39,22.7-1.19,7.09.07,14.69-4.16,21.23-1,1.47-.22,3,.66,4.64,3,5.49,3.25,13,11.07,15,.31.08.42.85.69,1.26.45.67,15.13,1.91,15.67,1.33a.89.89,0,0,0,.18-.47c.63-3.42,3.84-4.31,6.07-6.15,1-.8,2.44-1,2.41-2.8-.11-5.25,1.84-10.54.18-15.75-4.12-12.89-2.33-26-1.79-39.1.17-3.92-.86-8.65,4.75-10.27C1931.58,1792.41,1931,1791,1931,1789.59Zm-54.18-333.13c-2.84-2.81-4.58-5.88-4.75-9.47-.86-19.11-1.77-38.19,1.3-57.25,3-18.42,4.54-36.93,1.87-55.62-.78-5.43-2.9-11.14.12-16.64.47-.86.47-1.5-.64-1.87-8.14-2.72-14.91-8-22.39-11.95-2.33-1.24-3.22-.28-4,1.8a34.74,34.74,0,0,0-2,18.15,200.75,200.75,0,0,1,.35,62.09c-3.66,25.18-4.29,50.31,0,75.52.66,3.89,2.37,4.53,5.17,3.72C1860.1,1462.56,1868.79,1461.45,1876.81,1456.46Zm49-922.41c18.2,3.51,36-18.78,36.38-32.47.34-11.4-3.28-20.84-10.27-28.52-4.75-5.21-11.23-9.66-18.93-11-12.81-2.21-23.93,2.22-32.68,10.69-5.23,5.06-9.39,12.2-10.25,20C1887.41,516.27,1904.6,535.71,1925.76,534.05ZM737.24,142c9.17,2.2,17.37-3.07,23.82-9,8.58-7.93,12.66-18.64,11.05-31-2-15.09-16.25-30.07-31.82-32-12.24-1.5-22.11,3.14-30,11-5.14,5.08-9.57,12.09-10,20C698.75,126.85,716.36,143.3,737.24,142Zm1244.7,1681.65c-.7-11.28-2-21.49-3.53-31.68-2.49-16-3.3-32.07.68-48,.84-3.37,2.14-6.67,2.61-10.09.36-2.56,1.09-6.44-2.8-6.78-5.16-.45-9.54-2.8-14.2-4.42-7.12-2.47-7.16-2.7-9.53,4.93-7.61,24.46-8.4,49.28-3.72,74.38,2.33,12.49,3.88,24.93-.56,37.4-2,5.48-1.08,11.08.71,16.65,1,3,2,3.19,4.54,1.9a145.6,145.6,0,0,1,14.91-6.89,12.69,12.69,0,0,0,7.24-6.89C1981.62,1837.36,1981,1829.9,1981.94,1823.67Zm-41.48-463.88c-.44,1.1-.71,1.62-.86,2.16-.27,1-.44,1.94-.69,2.89-3.37,12.71-2.05,25.67-2.05,38.56,0,25.61-.1,51.22.13,76.83.21,22.15-1,44.24-1.7,66.36-1.33,40.3.72,80.57,1.82,120.85.15,5.57,3,10.7,3.83,16.29,2.34-7.37,5.9-13.91,5.9-22,0-48.13.09-96.25-1.79-144.36q-.94-24.37-.34-48.8c.76-33.43-1.65-66.91,1.53-100.3.11-1.1.23-2.15-.89-2.5C1942.65,1365,1942,1362.34,1940.46,1359.79ZM1007.35,222.46c-1.25,7-4.19,13.59-4.2,20.78,0,6.83,0,13.67-.39,20.48-1.26,22.94-1.59,45.93-1.21,68.87.3,17.77.2,35.57,1.2,53.37,1,18.35.81,36.79.5,55.2-.43,25.31,0,50.64-.37,75.95-.16,9.79,1.45,19.14,3.74,29.7,1.65-3.31,2.46-5.85,5.09-7,1.09-.49,1.3-1.78.88-3.07-2.13-6.43-1.28-13.15-1.39-19.68-.48-29-.74-57.94-.42-86.91.35-31.44,1.71-62.88,2.09-94.32.38-30.81-.22-61.63.28-92.44C1013.27,235.58,1009.52,229.49,1007.35,222.46ZM721.87,185.27a10.23,10.23,0,0,0-1.4.64c-7.23,4.83-14,10.18-18.7,17.67-1,1.56-.6,2.49.88,3.14,13,5.78,22,16.39,32,25.89a6,6,0,0,0,4,1.53c12.84,1.42,25.92,1.45,38.14,6.53,2.15.9,2.85-.07,3.26-2.18a68.85,68.85,0,0,0,.49-24.67c-.66-4.1-2.23-5.34-6.1-6-6.85-1.19-13.56-3.19-20.32-4.88-3.41-.85-4-2.19-1.3-5,5.18-5.37,10-11.08,15.08-16.58,5.41-5.87,12.76-10.43,13.14-19.64.05-1.15,1.91-2.64,0-3.42s-2.31,1.3-2.8,2.6c-1.22,3.22-.83,7.28-3.58,9.65-9.12,7.88-16.68,17.18-24.51,26.24-2.47,2.84-4.79,2.85-7.81.91-5.74-3.68-11.63-7.1-17.46-10.63ZM1823.42,123c10.35,9.7,20.1,19.7,28.17,31.17,1.11,1.59,2.58,1.71,4.26,2,9.92,1.74,20.09,1.69,29.56,6.28,10.74,5.21,11.55,4.53,12.4-7.61.56-7.93,2.25-16.68-8.53-20-.72-.22-1.25-1.07-1.87-1.62-11-9.83-11.54-10.05-5.91-23.78,3.49-8.51,3.2-20.07,15.33-23,.14,0,.26-.21.36-.34.87-1.06.69-1.8-.72-2-2.78-.42-10.76,4.81-11.65,7.61-3,9.32-7.43,18.14-9.25,27.84-.4,2.13-1.4,2.72-3.42,1.52-5.84-3.46-12.53-5.6-17.32-10.67-2.68-2.83-5.17-2.39-8.48-1.17C1838,112.37,1830.69,117.19,1823.42,123ZM1510.68,822.09c-12.14,28.52-26.74,55-39.9,82.25-4.42,9.16-10.2,17.66-12.87,27.68-5.08,19.15-10.48,38.22-15.62,57.35-3.73,13.9-9,27.61-6,42,2.11-5.87,4.1-12.27,6.67-18.44,11.94-28.75,24.24-57.3,33.78-87,10-31.06,21.42-61.65,32.25-92.44A26.26,26.26,0,0,0,1510.68,822.09ZM1437,1456.67c-.13,7.91-1,15.74,1.26,23.53,4.39,15.24,8.74,30.5,12.63,45.88,5.55,21.88,12.93,42.85,23.73,62.89,13.54,25.14,26.61,50.61,37.53,76.29a19.36,19.36,0,0,0-.86-8.51c-20.36-56.21-37.73-113.51-61.74-168.37C1445,1478,1440.91,1467.38,1437,1456.67Zm543.65-180.9c-.16-8.63-.16-8.63-8.49-7.8-1,.1-2,0-3,.16-9.51,1.54-18.86-.63-28.27-1.31-4.39-.32-5.89,1-4.88,5.3,1.43,6,2.39,12.08,4.26,17.91,1.65,5.15,2.12,10.89,5.74,15.2s7.81,7.76,11.26,12c6.71,8.28,18.28,12.75,19.88,25.08a.61.61,0,0,0,.25.42c.53.32,1.09.85,1.62.82.79,0,1-1,.85-1.51-1.63-4.6-1.65-9.91-6-13.33-8.9-7-16.15-15.79-24.25-23.67-2.24-2.17-2.19-3.62,1.25-4.13,7.06-1,14-2.85,21.2-2.94,2,0,4.2.1,4.71-2.56C1978.09,1288.78,1981.32,1282.51,1980.65,1275.77Zm-38-444c2.16-3,1.37-5.13.64-7.06-1.42-3.77-.64-6.81,1.77-10.07,5.91-8,10.31-17.07,17-24.57a7.37,7.37,0,0,0,1.52-3.6,170.74,170.74,0,0,1,8.32-32.23c1.32-3.48.24-5.16-3.6-4.66a130.47,130.47,0,0,1-36.23-.1c-2.68-.4-4,.33-3.83,3.45a87.69,87.69,0,0,0,4.65,23.33c.88,2.57,2.07,3.68,4.85,3.92,6.9.59,12.93,3.93,19.15,6.67,2.44,1.08,2.46,2.18.84,4-6,6.77-9.55,15.23-15.14,22.19C1937.43,819.41,1940.36,824.88,1942.63,831.72ZM1538.57,594c.54-1.48,1.13-2.94,1.62-4.43,3.85-11.69,7.63-23.41,11.53-35.08q15.51-46.38,31-92.75c.47-1.43,2.19-3.67.39-4.45a21.59,21.59,0,0,0-8.75-1.5c-2.22,0-1.9,2.74-2.43,4.31-5.89,17.52-11,35.27-15.59,53.18C1549.59,540,1540.31,566.06,1538.57,594Zm-690-504c-2.83,0-5.66.14-8.48,0-3.13-.19-4.32.29-3.44,4.06,2.7,11.65,5,23.42,1.9,35.4-.44,1.73-.1,2.32,1.74,2.5,8.29.79,16.11-1.17,23.88-3.71,1.37-.45,1.65-1.2,1.92-2.45,1.8-8.38.75-17.49,6.2-25,.12-.17-.5-1.09-1-1.43C864.59,94.34,858.84,86.72,848.61,90.05Zm861,393.55c4.31.95,3.2-1.72,2.91-3.78-1.18-8.32-3.8-16.52-1.59-25.09.83-3.2,1.16-6.53,1.69-9.8.21-1.31.57-3.16-1.52-2.76-6.31,1.22-13.11.31-18.92,3.52-4.92,2.72-9.35,6.33-14.15,9.31-2.5,1.56-2.42,3-1,5.24,3.12,4.86,7,9.36,8.23,15.23.74,3.56,2.94,4.88,6.38,5.83C1697.69,483,1703.79,483.14,1709.61,483.6Zm-297.76,892.93c2.88-13.52,5.26-26.15,5.14-39.06-.2-23.16-1.85-46.24-3.94-69.29-.69-7.59-.68-7.59-8.38-9.25a2.65,2.65,0,0,1-.49-.09c-3.52-1.44-3.8.16-3.41,3.22,1.48,11.39,2.91,22.8,4.07,34.24C1407.51,1322.63,1411.31,1348.86,1411.85,1376.53Zm-1.21-303,1.44-.13c-.31,2.91-.74,5.8-.9,8.72-1.93,34.63-7.13,68.91-11.16,103.32-1,8.29-1.27,8.15,6.81,6.22,3-.71,4.25-1.51,4.66-5.22,1.89-17.21,2.89-34.49,4.06-51.74,1-15,1.51-30.1-1.28-45.12A152.29,152.29,0,0,0,1410.64,1073.54ZM1018.87,923.89a34,34,0,0,0-1.13-10.87c-.31-1.19-.79-2.75-2.48-2.74a2.51,2.51,0,0,0-2.32,2.28c-1.46,7.06-1.78,14.14.43,21.12.28.88.77,2.44,2.35,2.09a3.19,3.19,0,0,0,2.18-2.53A23.12,23.12,0,0,0,1018.87,923.89Zm-6.93,80.77c.14,3.85-.29,7.52,1,11.05.49,1.32,1.16,2.54,2.67,2.48,1.26-.05,2-1.14,2.29-2.33,1.8-6.74,1.22-13.48-.11-20.18a3.09,3.09,0,0,0-2.77-2.47c-1.35-.08-1.7,1.33-2.2,2.36C1011.37,998.57,1012.27,1001.78,1011.94,1004.66Zm.06,44.06c.14,2.13-.44,5.33.71,8.38.45,1.22.88,2.86,2.48,2.59a3.59,3.59,0,0,0,2.48-2.15c1.46-6.85,2.09-13.77.22-20.66a2.65,2.65,0,0,0-2.41-2.21,3,3,0,0,0-2.45,2.21C1011.82,1040.42,1011.94,1044.07,1012,1048.72Zm0-84.86c.11,3.64-.17,7.15.95,10.54.45,1.33,1,2.59,2.59,2.61s2.18-1.26,2.5-2.64a43.26,43.26,0,0,0-.22-19.73c-.29-1.19-.64-2.79-2.44-2.65-1.54.12-2.15,1.35-2.63,2.65C1011.56,957.7,1012.17,960.89,1012,963.86Zm357.74-546.64a50,50,0,0,0,16.59,4.19C1381.21,418.13,1375.44,417.57,1369.69,417.22Zm7.38,1613.61a50,50,0,0,0-19.13,4.18C1364,2034.46,1370.18,2034.16,1377.07,2030.83Z"/><path class="cls-1" d="M479.17,692.06c-2.37,15.53-6.56,30.67-9.62,46.05-1.13,5.67-2.55,11.28-3.52,17a57,57,0,0,1-9.71,23.09c-7.55,10.91-14.51,22.24-22,33.17-6.25,9.09-8.63,19.71-11.92,29.85-6.16,19-14.66,37-22.62,55.17-1.79,4.12-3.54,8.11-4,12.7-.71,7.73-4.33,14.56-7.65,21.38-6.92,14.2-6.9,29.12-5.37,44.3.91,9.07,1.19,18.21,2.37,27.23,2,15.21-3.1,29.45-5.68,44-4.93,27.78-11.26,55.31-16.09,83.11-2,11.37-1.58,23.16-2.32,34.75-.14,2.1.67,3.93,1.31,5.78,2.48,7.2,5.67,14.21,7.51,21.56,3.18,12.75,11.22,22.12,19.42,31.77,16,18.83,34.19,35.32,52.52,51.75,8.13,7.29,13.43,17.19,20.2,25.76,17.15,21.7,30.45,45.85,44.33,69.62a31.91,31.91,0,0,1,1.75,4.11c-6.3,3.95-7.83,10.59-9,17.11-2,11.53-6.48,22.28-10.34,33.2-3.63,10.24-8.79,20-8.78,31.21a9,9,0,0,1-.48,2.44c-7.05,24.72-7.05,50.26-8.13,75.58-.62,14.44-1.26,28.91-1.53,43.38a194.37,194.37,0,0,1-2.13,27.82c-3.94,23.92-8.92,47.65-14.11,71.33a32.82,32.82,0,0,0-1,8.89c.59,9.38-1.42,18.5-2.22,27.73-.84,9.69-.64,19.54,2.33,28.67,4.92,15.13,10,30.31,18.31,44.1,3,5,4.75,10.56,8.39,15.27,9,11.68,20.24,21.68,27.06,35.06a10.92,10.92,0,0,0,4.73,4.32c-1.12,6.09-5.95,9.84-9.48,14.28-6.51,8.19-13.69,15.84-20.53,23.76a21.6,21.6,0,0,0-3.06,4.49c-11.62,23.69-24,47-36.73,70.1-4.85,8.8-6.14,19.17-9.27,28.76-4.15,12.75-6.88,25.86-9.59,39-.81,3.92-.59,7.91-1.19,11.86s-2.2,4.49-5.5,4.49a48.76,48.76,0,0,1-13.76-1.65c-13.29-3.78-26.69-4.6-40.14-.87-4.1,1.14-4.21-.81-3.58-3.84,1.66-7.92,5.06-15.5,4.71-23.8a318.58,318.58,0,0,0-4.55-42.5c-.86-4.8.91-6.12,4.78-6.31,4.55-.23,8.73-1.61,13.05-2.88,8.95-2.62,15.26-8.57,21.22-15.14,3.71-4.09,5.36-9.09,6.11-14.48,1.08-7.79,1.57-15.17-2.83-22.6-3.05-5.14-6.91-6.8-12.2-8-13.3-3.08-26.42.27-39.61.5-5,.09-9.94.87-14.87-.32-10.1-2.45-19.79.69-29.53,2.36-5.46.93-12.12,13.07-11.43,19.95a95,95,0,0,0,2.33,14.24c2.43,9.5,9.29,15.84,17.27,20.44,6.67,3.84,13.91,7,22.1,7,6.24,0,7,1.79,6,9.25-1.13,8.55-1.92,17.14-2.7,25.73a86.56,86.56,0,0,0,4.94,37.71c1.3,3.61.26,4.79-3.4,4.24-4.74-.72-9.47-1.69-14.24-1.94-9.38-.51-18.41,1.91-27.3,4.48-4.75,1.37-9.48,1.38-14.28,1.48-2.41,0-3.59-.68-3.85-3.32-2.66-27.14-12.58-52.36-21.35-77.81-2.91-8.46-8.86-15.89-13.62-23.69a356.68,356.68,0,0,1-19.81-36.25c-5.92-12.83-15.13-22.93-24.66-32.89-6.2-6.47-12.25-13-16.73-20.87A19.71,19.71,0,0,0,191,1837c2.81-5.29,5.75-10.5,10.07-14.79,15.5-15.41,24.27-35,31.93-54.78,5-12.92,10.18-26.3,9.62-41a127.59,127.59,0,0,0-1.7-17.24c-2.19-12.59-.9-25.59-5-38-1.65-5-2.21-10.4-3.53-15.55-4-15.45-8-31-10.25-46.71-3.83-26.81-5-53.87-6.28-80.92-.61-12.73-2.28-25.43-3.66-38.12-1.22-11.09-5.13-21.71-6.71-32.66-1.5-10.39-5.87-19.44-9.45-29-4-10.68-8.86-21.1-11.09-32.45-1.27-6.46-2.74-13.16-9.32-16.85,2.55-9.65,8.78-17.44,13.23-26.13,12.61-24.62,28.76-47,45-69.26,5.32-7.32,12-13.38,18.82-19.22,16-13.8,28.39-30.74,42.53-46.16,11.35-12.36,12.78-28.41,18.87-42.71,3.79-8.88,2.15-17.76,1.28-26.8-4-42-17.14-82.1-25.19-123.25-2.59-13.25-1.09-26.07-.62-39.09.72-20.19,3.2-40.53-8.26-59.12A44.8,44.8,0,0,1,275,908.52a21.6,21.6,0,0,0-2.43-7.52c-13.08-25.21-23.53-51.54-33.48-78.11-3.73-10-11.45-17.79-17.31-26.61-5.4-8.16-11.72-15.76-16.59-24.21-2.62-4.55-3.13-10.36-4.44-15.63q-7.18-28.87-14.23-57.76a16.68,16.68,0,0,1-.22-2.47c5.49-2.47,5.37-7.61,5.57-12.35q1.14-27.4,1.92-54.82c.15-5.46.71-10.92-.32-16.41-3.24-17.28-7.44-34.36-11.18-51.52-5-23.07-8.11-46.39-11.34-69.71-2.89-20.87-5-41.88-8.95-62.56-3.69-19.55-9.06-38.8-14.08-58.09-1.65-6.37-2.16-13.17-5.9-18.92,13.16-9.25,26.64-18,38.27-29.34,19.09-18.57,33.9-40.08,43.61-64.74,16.44-41.75,29-84.75,40.45-128.14,4.18-15.92,3.31-31.44,1.87-47.25-.64-7-.65-7.18,6.4-7.3,10.85-.18,21.36,2.63,32.12,3.48,19,1.5,37.77,1.46,56.39-2.86,6-1.4,12.16-1.33,18.19-2.39,2.92-.51,3.89,1.15,3.72,3.81-.32,4.81-.52,9.63-1,14.43-1.45,15.34,2.35,29.82,6.36,44.44,10,36.45,23,71.9,36.16,107.24a196.32,196.32,0,0,0,40.65,65.62c14.3,15.37,31.54,26.81,49,38.07-4,9.05-5.29,18.84-7.52,28.34-3.87,16.48-7.94,33-10.41,49.7-3.45,23.29-5.53,46.79-8.14,70.2-1.29,11.54-1.81,23.21-3.82,34.61-4.13,23.35-7.76,46.79-12.94,70-1.36,6.09-2.7,12.29-2.07,18.74.86,8.92,1.33,17.88,1.88,26.83.75,12.1,1.23,24.23,2.19,36.32C473.69,685.71,473.76,690.51,479.17,692.06ZM344.69,1789.76c5.85,0,10.05.35,14.17-.06,13.84-1.38,26.43-5.23,35.81-16.72,9.67-11.84,5.22-31.6-11.18-35.19-8.3-1.81-16.52-4.82-24.68-7.62-7.72-2.65-16.12-2.3-24,0-8.89,2.58-17.45,6.31-26.31,9.07-9.11,2.83-14.52,9.51-14.58,19.06-.06,10.87,8,21.58,17.95,25.82C323,1788.85,334.35,1791.12,344.69,1789.76Zm.37,76.32c9.72.53,20.55-1.53,31.48-2.32,9.21-.67,22.5-12,23.44-22.07,1.78-19.12-10.66-29.73-27.16-29.37-14.42.32-28.87,2-43.28,1.26a47.83,47.83,0,0,0-18,2.13c-6.83,2.28-15.63,12.18-16.35,19.39-1.27,12.79,7.72,25.92,20.28,28.78C324.77,1866,334.31,1865.87,345.06,1866.08Z"/><path class="cls-2" d="M1036.67,1433.89c14.25-7.35,27.81-14.41,41.44-21.35a36.55,36.55,0,0,0,9.84-7.44,458.89,458.89,0,0,0,46-55.65,37.16,37.16,0,0,1,5.19-6c15-13.89,21-32.17,24.79-51.4,3.73-19,9.25-37.66,11.28-57,.25-2.38,1-3.51,4-3.13,19.33,2.46,38.77,2.82,58.24,3.26,12.52.28,25,3.36,37.48,5,13.34,1.73,26.71,3.28,40.07,4.82,21.45,2.47,42.88,5,64.36,7.18,5.85.59,5.69,3.6,6.31,8.33,2.27,17.18,3.75,34.45,6,51.63,5.42,41.6,6.19,83.36,5.11,125.21a25.92,25.92,0,0,1-1.4,7.31c-10.54,32.44-17.56,65.8-25.17,99-2.91,12.7-2.68,26.1-4.27,39.14-3.09,25.19-3.17,50.47-3,75.78,0,4.65-2,9-2.48,13.7a123.86,123.86,0,0,0,4.35,48c2.66,9.12,5.64,18.15,7.85,27.38,5.83,24.41,15,47.67,24.76,70.64,4.12,9.68,5.11,19.62,5.56,29.72,2,45.28,2.3,90.59,2.23,135.92,0,9,1.25,17.94,2.11,26.9.28,2.89-.43,3.94-3.45,3.44-6.41-1.06-12.58.3-18.67,2.24-4.32,1.38-8.89.13-13.3,1.44-17.24,5.1-35.29,6.67-52.53,11.77-2.47.73-3.31-.12-4-2.11-11-33.71-30.69-63.06-46.57-94.34-5.4-10.63-8-22.65-12.45-33.81a442.46,442.46,0,0,1-23.13-79.84c-1.65-8.43-1.57-17.2-2.25-25.82s-.82-17.34-2.18-25.86a43.36,43.36,0,0,0-7.42-17.6c-6.23-9-10.5-19.09-15.66-28.68a6.76,6.76,0,0,1-.82-3.28c-.27-29-8.26-56.16-19.46-82.53-6.57-15.46-10.81-32-20-46.24-9-13.9-18.37-27.53-27.39-41.41a923.37,923.37,0,0,0-58.26-80.55,71.56,71.56,0,0,0-29.19-21.5C1044.84,1443.77,1041.85,1437.85,1036.67,1433.89Z"/><path class="cls-2" d="M1037,1011.34c6.13-6.13,11.86-11,19.65-14.8,12-5.86,22.12-15.23,31-26,30.5-36.88,56.7-76.8,83.71-116.15,6-8.68,8.51-19.24,12.79-28.86,9.67-21.73,18.54-43.74,23.2-67.18,1.33-6.66,2.94-13.32,2.6-20.2a28.51,28.51,0,0,1,4.17-16.55c4.83-8.07,9-16.5,14.32-24.32,6.45-9.4,7.89-20.49,8.58-31.72.72-11.61,1.38-23.3,3.29-34.74,1.87-11.22,5.2-22.2,8.06-33.24,6.18-23.87,16.91-46.11,25-69.3,6.2-17.76,16.88-33.2,26-49.41,9.95-17.71,19.65-35.46,26.56-54.6,1.13-3.12,2.43-3.77,5.75-2.7,7.91,2.55,15.88,5.05,24.25,5.78,5.21.46,10,2.57,14.86,4.17,11.24,3.7,23.22,4,34.5,7.53,2.3.72,3.33,1.2,2.89,3.91-1,5.9-1.45,11.87-2.24,17.8-2.21,16.52.8,32.89,1.48,49.31.87,21.11,3.21,42.17,4.12,63.26a222.9,222.9,0,0,1-3.33,49.76c-1.44,7.88-5.45,15-8.83,22.21-14,29.73-21.66,61.57-31.11,92.77-5,16.65-5,34-1.74,51.45,1.68,9,.76,18.6.25,27.89-1.31,23.56,2.36,46.83,3.64,70.23,1.79,32.85,12.8,63.89,19,95.88a137.33,137.33,0,0,0,6.23,21.93,21.6,21.6,0,0,1,1.59,7.77c-.3,27.49.7,55-1.94,82.43-2.95,30.51-6.28,61-10.66,91.33-.21,1.48-.81,3-.54,4.44,1.06,5.35-2,6.09-6.27,6.62-23.58,2.87-47.2,5.14-70.91,6.55-18.61,1.1-37.28,1.74-55.71,4.52-17.21,2.61-34.58.61-51.75,2.87-6.74.89-13.58,1.49-20.12,3.2-4.61,1.2-5-1-5.23-4.15a177.19,177.19,0,0,0-4.21-29c-3.36-14.15-4.77-28.68-8.81-42.71-3.33-11.58-7.75-22.32-16.27-31.25-9.76-10.23-17.52-22.14-26.52-33-16.89-20.39-34.94-39.45-59.38-51.21C1051.55,1020.29,1044.61,1015.71,1037,1011.34Z"/><path class="cls-3" d="M1791,159.65c-.76,27.46-1.83,54.92-2.18,82.38-.23,18,1.73,35.85,3.71,53.71,1.55,14,3.06,28.06,4.38,42.11,1.73,18.37,5.38,36.38,9.18,54.4,1.5,7.12,1.68,14.49,1.87,21.81.08,3.11-1.63,3-3.77,3-11.46,0-23,.59-34.14-2.85-4.81-1.49-8.75-.2-12.33,2.82-3.22,2.71-5.86,2.59-9.56.15-30.17-19.9-64-30.81-99-37.62a118.52,118.52,0,0,0-38.8-1.11c-7.6,1.07-14.69,5.73-22,8.79a12.28,12.28,0,0,1-2.26,1c-12.41,2.49-17.85,10.72-19.23,22.67-.41,3.56-2.24,6.94-2.79,10.49-.63,4.1-2.46,5-6.39,4.37-9.49-1.45-19-2.59-28.7-2.17-31.75,1.36-63-1.38-93.23-12.41-2.94-1.08-3.83-1.83-2.84-5.13,8.08-26.81,14.16-54.14,22.5-80.91,8.42-27,11.63-55.16,10.78-83.61-.72-24.62-1.48-49.25-2-73.89-.26-13.48,1.3-26.94,3.56-40.15,4.24-24.87,14.44-47.58,29.33-67.83,5.52-7.51,13.56-13.17,20.43-19.69,1-1,2-1.16,3-.11.47.47,1,.9,1.43,1.4,11.66,13.27,27.08,18.68,43.92,21.75,19.76,3.6,39.55,6.92,59.69,5.93,16.06-.79,32.11-1.93,48.14-3.61,22.26-2.32,41.71-11,59.53-23.87,3.49-2.52,5.68-2.18,9,.36,13.27,10.15,25.59,21.1,35.78,34.52,4,5.2,4.23,11,5.81,16.65C1790,114.82,1791.35,137.15,1791,159.65Z"/><path class="cls-3" d="M1380.79,142.7c.06,27.16-2,52.58-1.88,78.07.19,32.9,7.13,64.49,17.52,95.49,6.59,19.66,9.5,40.31,16,60,.77,2.3-.23,3-2,3.61-19.76,6.44-39.71,11.72-60.72,12.29-14.15.39-28.25,1-42.42.29-6.36-.32-12.88,1.06-19.23,2.24-4.14.77-6.15-.2-7.16-4.37-1.77-7.38-4.16-14.6-5.86-22-.84-3.63-2.74-5.52-6.06-6.87-10-4.08-19.8-8.4-29.69-12.64-7.87-3.39-16.08-1.58-24.13-1.37-35.28.93-67.56,12.87-99.06,27.51-7.39,3.44-14,8.25-21,12.32-1.33.77-2.75,2.46-4.39.82-8-7.9-17.08-4.54-26-2.85-8.43,1.6-16.93.45-25.39.79-3.1.13-2.33-2.26-2.27-3.88a173.39,173.39,0,0,1,5.39-37.85c4-15.51,4.67-31.49,6.56-47.29,1.62-13.51,3.24-27,4.56-40.58,1-10.74,1.93-21.52,2.38-32.31,1.13-26.79-.5-53.54-1.78-80.29a413.61,413.61,0,0,1,1.25-53.41c1.1-13.4,5.08-26.66,8.68-39.73,1.77-6.41,7.89-10.52,11.85-15.83,8-10.73,19.61-17.35,29.56-25.88,1.41-1.2,2.44-1.12,3.88,0,13.6,10.65,29.13,17.43,45.42,22.76,6.56,2.15,13.37,2.55,20,3.15,18.68,1.67,37.4,3.48,56.2,3.16,18.44-.3,36.5-3.61,54.46-7.52a92.72,92.72,0,0,0,12.44-3.11c9.91-3.65,18.1-9.64,25.26-17.15,2-2.14,3.18-2.25,5.59-.22,13.15,11,24.6,23.5,32.18,38.94,4.66,9.5,7.64,19.81,12,29.46,4.23,9.34,4.85,19.26,5.75,29.11C1379.86,119.81,1381.91,132,1380.79,142.7Z"/><path class="cls-3" d="M1021.19,1100.73c.68,3-1.19,6-4,9-17.57,18.83-29.26,41.53-41.05,64-8.18,15.63-12.34,32.88-16.87,49.85-2.38,8.92-6.4,17.05-9.9,25.46-1,2.53-2.6,3.14-5,2.93-5-.43-10-.28-14.84-1.33s-8.77-.28-13,1.37a122.76,122.76,0,0,1-15.49,5.25c-19.62,4.73-35.08,15.82-48.15,30.72a7.8,7.8,0,0,0-2.34,6.47c1.16,16.62,9.79,30.34,16.17,45,17.41,40,33.54,80.54,44.77,122.82a71,71,0,0,1,2.63,17.18c0,2.83-.93,4.37-3.53,5.12-4.66,1.35-8.71,4-13.09,6-2.74,1.24-3.2,3.32-3.51,6-1.19,10.46.08,20.89.09,31.33,0,8.65-.49,17.26-.87,25.9-.58,12.94,1.69,25.89.82,38.88a192.8,192.8,0,0,0-.06,26.33c.22,3.2,1.16,5.3,4.18,6.57,3.65,1.53,7.07,3.71,10.82,4.89,4.28,1.35,5.57,3.7,5.11,8-1.54,14.59-5.93,28.44-10.54,42.22-13.2,39.36-27.92,78.13-46.3,115.4-4.18,8.48-5.37,17.61-7.05,26.67-.34,1.83,1,2.67,1.86,3.82,9,11.47,20.74,19.46,33.16,26.67,3.21,1.86,6.83,2.47,10.3,3.47,6.35,1.84,12.9,3.21,18.8,6.18,7.49,3.77,15.13,2.07,22.78,1.54.66,0,1.29-.34,1.94-.43,8.41-1.15,8.5-.82,12.27,6.87,8.9,18.18,11.94,38.26,18.82,57.09,5.76,15.75,14.42,29.9,22.91,44.14,7.3,12.27,14.33,24.85,25,34.68,4.58,4.21,3,9.54,3,14.48,0,2.92-2.33.85-3.24.38-5.91-3-11.75-6.18-17.54-9.42a8.8,8.8,0,0,0-4.66-1.4c-17,.37-33.89-1.57-50.88-1-14.8.47-29.52-1-44.2-2.75-2.12-.26-3.87.74-5.73,1.32q-41.85,13.13-82.83,28.7c-10.44,4-10.69,3.38-14.94-6.78-3-7.2-5.8-14.49-9-21.6-1.28-2.83-.38-3.89,1.91-5.48,12.68-8.8,27.45-13.07,41.34-19.23,5.49-2.44,10.08-5.58,11.4-12,.35-1.7.7-3.1-.38-4.68-15.52-22.9-25.37-48.65-36.77-73.62A359.12,359.12,0,0,0,787,1857.46c-4.18-7-9.91-12.45-15.31-18.3-2-2.21-4.22-1.28-6.44-.81-8.61,1.8-16.67,5.28-24.86,8.35-6.81,2.55-13.81,4.51-20.77,6.63-3.14,1-4.22-.06-5.15-2.63-4.08-11.22-9.05-22.09-12.74-33.48-1.16-3.59-.33-5,3-6.17a313.51,313.51,0,0,0,50.94-22.11c26.25-14.52,43.48-36.34,53.35-64.33,12.59-35.67,24.77-71.44,33.41-108.35,4.7-20,5.36-40.29,5.91-60.72,1-38.13-9.68-73.87-20.76-109.56-6.76-21.79-13.75-43.53-22.57-64.63-10.2-24.41-27.31-42.43-50.3-55.16A283,283,0,0,0,705,1305c-3.54-1.16-4.56-2.35-3.29-6.3,3.72-11.55,8.66-22.61,12.8-34,1.12-3.08,2.81-3.06,5.33-2.34a314.24,314.24,0,0,1,30.45,10.47,151,151,0,0,0,16.06,4.93c2.32.65,3.87-.16,5.7-1.8,14.16-12.62,21.83-29.39,29.82-46,10.12-21,18.18-43,29.48-63.53,2.87-5.22,6.13-10.22,9.28-15.29a11.72,11.72,0,0,0-3.24-15.92c-6.88-4.79-14.91-7.09-22.58-10.15a150.6,150.6,0,0,1-25.21-12.76c-2.37-1.5-2.73-2.57-1.64-5.09,3.95-9.14,7.7-18.37,11.37-27.64,1.28-3.23,2.84-4,6.41-3,17.73,4.94,34.14,13.44,51.74,18.7,12.51,3.73,24.89,7.91,37.26,12.09,4.14,1.4,8.35,1,12.35.51,20.57-2.65,41.23-1.23,61.81-2.09,8.8-.37,17.6-.73,26.4-.72,2.77,0,4.69-1.49,6.85-2.62,5-2.6,10-5.13,14.85-8,3.73-2.25,4.58-1,4.21,2.69C1021.12,1097.92,1021.19,1098.76,1021.19,1100.73Z"/><path class="cls-2" d="M1444.72,1212.8c0-14.07,0-27.87,0-41.66.12-25.69.73-51.44,6.5-76.54,9.6-41.76,22.43-82.54,41.74-121,8.26-16.46,12.94-34.2,19.24-51.36,10.08-27.49,20.78-54.77,28.9-83a29,29,0,0,0,1.2-8.82c-.32-16.33-.22-32.52,4.67-48.48,3.31-10.79,1.54-22.2.51-33.29-1.57-16.91-4.06-33.83-3.94-50.77.09-12.73,2.69-25.49,5.82-37.92,6.87-27.31,17.75-53.32,26.47-80,12-36.85,24.31-73.62,36.27-110.5,1.42-4.37,4.08-6.19,7.66-4.37,10.81,5.5,22.62,4.78,34.07,6.27,3.35.43,4.24,1.41,3.7,5-3.16,21.35-5.66,42.79-7.64,64.29-1.54,16.72-3.58,33.39-5,50.12q-2.25,26.87-3.71,53.79c-1.45,26.39-3.06,52.79-3,79.24,0,9,.1,18,.55,27,.53,10.62-1.51,20.78-4.57,30.82-3.13,10.28-3,21-4.26,31.54a5.64,5.64,0,0,0,.51,2.88c7.74,16.74,8.66,34.94,11.41,52.74,2.81,18.2,5.09,36.49,8.47,54.58,3.52,18.87,4.28,37.93,5.57,57,1,14.78,2,29.56,2.68,44.36.74,16.82-.58,33.62-1.08,50.43-.27,9.15-1,18.28-1.41,27.43-.54,13.34-4.09,26.09-7.78,38.79-.79,2.74-.45,3.93,1.82,5.56,9.51,6.88,9.45,7,4.53,17.5-1.32,2.83-2.48,5.78-4.06,8.47-3.65,6.22-8.29,11.31-15.49,13.7-14.26,4.75-25,14.52-35.1,25.15a7.49,7.49,0,0,1-6.07,2.51c-32.47-.1-64.92.27-97.39,1.37C1479,1216.2,1461.38,1213.8,1444.72,1212.8Z"/><path class="cls-2" d="M1550.05,1726.43c.35-10.86-.29-19.07-2.92-27.14-4.43-13.59-3.14-27.69-3.19-41.65a34.24,34.24,0,0,0-1.39-9.8c-10.33-34.64-24.6-67.9-35.88-102.19-8.77-26.65-23.07-50.9-32.43-77.25-16.35-46-29.33-92.67-29.4-142.05,0-15-.47-30-1.18-45-.22-4.64,1.43-4.91,5.31-4.79,32.08,1,64,4,95.81,8.14,15.87,2.07,31.81,1.19,46.6-6.32,2.58-1.31,4.57-1.4,6.68,1.11,11,13.06,25.38,20.93,41.25,26.4a10.26,10.26,0,0,1,6.48,5.65c3.42,7.52,9.32,13.26,14.4,19.56,1.64,2,2.54,3.48-.54,4.7-8.08,3.19-9.75,8.12-7.94,17.06,6.7,33.21,7.32,67.06,8,100.8.28,13.78-1.13,27.6-1.9,41.39-.8,14.13-1.84,28.24-2.63,42.37-.78,13.8-3.83,27.26-5.82,40.88-2.89,19.7-6.06,39.37-8.52,59.14-1.1,8.83-1.87,18-6,26-4.78,9.37-2,18.78-1.58,28.26.45,8.88,3.93,17,5.76,25.59,2.75,12.92,1.15,25.87,1.12,38.79-.06,29.82,1.45,59.56,3.61,89.29,1.23,16.93,1.86,33.9,3.28,50.81,1.38,16.39,3.27,32.75,5.2,49.09,2.64,22.44,5.5,44.85,8.35,67.27.27,2.1-.15,3.17-2.32,3.42-2.64.3-5.28.94-7.92,1a66.84,66.84,0,0,0-25.71,5.06c-6.05,2.58-7.88,1.41-9.81-4.65-18.7-58.67-39.44-116.64-59.45-174.86-5.71-16.64-8.66-34-9.86-51.37-.94-13.64,1.56-27.55,2.76-41.32C1549,1741.22,1550,1732.61,1550.05,1726.43Z"/><path class="cls-4" d="M175.68,1378.94c6.58,3.69,8,10.39,9.32,16.85,2.23,11.35,7.07,21.77,11.09,32.45,3.58,9.54,7.95,18.59,9.45,29,1.58,11,5.49,21.57,6.71,32.66,1.38,12.69,3.05,25.39,3.66,38.12,1.3,27,2.45,54.11,6.28,80.92,2.25,15.76,6.27,31.26,10.25,46.71,1.32,5.15,1.88,10.52,3.53,15.55,4.06,12.37,2.77,25.37,5,38a127.59,127.59,0,0,1,1.7,17.24c.56,14.72-4.61,28.1-9.62,41-7.66,19.75-16.43,39.37-31.93,54.78-4.32,4.29-7.26,9.5-10.07,14.79a19.71,19.71,0,0,1-7.15,8.14c-2.21-.52-3.08-2.52-4.15-4.11-6.83-10.09-17.13-16.09-26.9-22.6-12.46-8.29-24-17.75-35.6-27.16-6.54-5.31-14.1-8.11-21.63-10.93-17.17-6.43-33-15.54-49.15-24-10.85-5.63-22.45-9.87-33.86-14.34-4.18-1.64-4.89-3.15-2.58-7.13a384.37,384.37,0,0,0,20.14-41.19c4.32-10.06,6.22-21,8.91-31.55,9.23-36.26,20.68-71.71,36.61-105.68,3.64-7.75,7.06-16.15,7.91-24.53,1.06-10.48.7-21.42-9.46-29.13-10.37-7.88-14.86-20.24-21.49-30.92-1.39-2.23.25-2.72,2.25-2.94,8.55-.93,17.08-2,25.62-3,8.88-1,17.75-2,26.65-2.88a7.34,7.34,0,0,0,4.71-2.35c11-10.66,21.76-21.5,33-31.84a67,67,0,0,0,14.85-20.36c4.17-8.5,8.5-16.91,12.83-25.33C173.34,1381.65,173.72,1379.69,175.68,1378.94Z"/><path class="cls-4" d="M511.17,1840.25a10.92,10.92,0,0,1-4.73-4.32c-6.82-13.38-18-23.38-27.06-35.06-3.64-4.71-5.39-10.3-8.39-15.27-8.31-13.79-13.39-29-18.31-44.1-3-9.13-3.17-19-2.33-28.67.8-9.23,2.81-18.35,2.22-27.73a32.82,32.82,0,0,1,1-8.89c5.19-23.68,10.17-47.41,14.11-71.33a194.37,194.37,0,0,0,2.13-27.82c.27-14.47.91-28.94,1.53-43.38,1.08-25.32,1.08-50.86,8.13-75.58a9,9,0,0,0,.48-2.44c0-11.24,5.15-21,8.78-31.21,3.86-10.92,8.3-21.67,10.34-33.2,1.16-6.52,2.69-13.16,9-17.11,4.64,6.51,8.25,13.66,11.74,20.78,6.45,13.12,14.34,24.87,25.79,34.28,8.86,7.28,17.22,15.21,25.38,23.28,5.06,5,11.27,5,17.43,5.44,14.38,1.15,28.78,2.09,43.18,3.1,2.51.17,3.25.92,1.81,3.4-6.75,11.6-11.84,24.29-22.51,33.25a17.55,17.55,0,0,0-6.41,11.7c-1.31,8.76-.87,16.77,2.24,25.23,8.43,23,20.76,44.26,28.68,67.4,5.1,14.9,10.21,29.86,14.1,45.11A285.22,285.22,0,0,0,683,1726.69c2.11,3.43,1.59,5-2.19,6.4-23,8.81-44.06,21.61-65.73,33.15a171.5,171.5,0,0,1-22.78,10c-9.71,3.48-17.08,10.21-24.51,16.73-12.89,11.31-27,21-40.75,31.14-4.15,3.05-7,7-10.06,10.93C515.33,1837.09,514,1839.49,511.17,1840.25Z"/><path class="cls-3" d="M1835,777.93c.35,1.71-1.12,2.28-2.66,2.45-9.88,1.08-16.67,7.56-24.63,12.59-8.65,5.46-13.75,12.18-16.28,21.28-2.82,10.15-10,17-16.72,24.28-15,16.1-29.36,32.7-42.72,50.18-4.29,5.61-6.4,12.37-9.12,18.76-5.73,13.41-12.66,26.29-16.5,40.55-4.22,15.71-1.9,30.67,3.66,45.33,3.58,9.44,6.44,19.12,11.34,28.12,7,12.91,16.67,23.74,26.7,34,21.67,22.25,41.82,45.56,58.69,71.75,5.1,7.92,13,13.66,21.41,18.36,7.78,4.36,7.12,4.43,6.63,13.27-.75,13.75-7.55,25.32-12.29,37.63-2.14,5.57-5.14,10.8-7.62,16.24-1.09,2.38-2.29,2.74-4.63,1.41a105.54,105.54,0,0,1-31.2-26.76c-25-32-45.14-67.05-65.31-102.07-14.45-25.08-26.81-51.17-33.81-79.51-6.4-25.94-5-51.62,1.77-77.27,9.13-34.59,26.21-65.61,43.13-96.71,13.27-24.4,27-48.58,41.94-72,7.61-11.9,15.63-23.58,26.67-32.72,4.8-4,10.75-5.87,16.21-8.65,1.5-.76,2.14.1,2.68,1.23,8.71,18.46,18.72,36.39,22.49,56.8C1834.85,776.87,1834.87,777.2,1835,777.93Z"/><path class="cls-3" d="M836,808.27c.28-24.12,6.47-46.89,15.47-69.09,10.46-25.83,24.38-49.8,38.67-73.61,15.5-25.82,31-51.64,49.76-75.32a107.35,107.35,0,0,1,31.66-27.07c1.9-1.07,2.63-.86,3.68,1.17a381.6,381.6,0,0,1,18.45,42.51c2.19,5.91,1.48,12.5,2.26,18.77.35,2.83-2.07,3.57-3.82,4.64a124.72,124.72,0,0,0-15.6,10.67c-7.71,6.49-12.55,15-18.12,23-14.42,20.9-31.57,39.44-49.1,57.75-11.91,12.44-24.07,25.08-30.56,41.59-6.65,16.94-14.52,33.67-13.7,52.52A74,74,0,0,0,871,841.92c6,14,12,28.13,18.71,41.86,4.53,9.3,11.89,16.83,18.56,24.65Q925.15,928.2,943,947.12c6.34,6.71,8.55,15.22,11.88,23.23,2.22,5.34,5,9.6,10.41,11.91a14.23,14.23,0,0,1,4.52,3.06c6.32,6.51,13.59,11,22.86,11.82,2.53.22,3.45,1.32,2.91,4.36-3.59,20.14-13.69,37.66-22.07,55.88-.9,2-2.12,2.16-4,1.41a65.91,65.91,0,0,1-28.75-22.26c-19.29-25.8-34.65-54-50.32-82-9-16.1-17.6-32.44-26-48.89-12.32-24.25-21.81-49.55-26.13-76.55C837.22,822.19,836.78,815.21,836,808.27Z"/><path class="cls-1" d="M1728.65,649.13c-16-17.76-32.76-35-44.93-55.72-10.07-17.17-11-35.3-3-53.67.9-2.09,2.53-3.87,3.82-5.79,1,5.36,3.22,6.59,8.26,4a29.45,29.45,0,0,1,14.33-3.08,90.87,90.87,0,0,1,17.73,1.92,38.86,38.86,0,0,0,12.35.73c9.53-1,18.28-4.41,27.27-7.3,17.46-5.6,34.17-12.64,49.64-22.53,2.46-1.58,4.44-3.46,5.25-6.35l48.28,1.26c-4.72,10.36-2.21,19.73,3.94,28.6a139.6,139.6,0,0,1-.85,30.31c-2,15.21-.51,30.15,2.68,45,.8,3.73.85,6.7-2.21,9.38-6.07,5.3-9.63,11.72-8.27,20.12.37,2.29-1,3.45-2.9,3.83-21.44,4.32-37.35,17.77-53,31.76-5.18,4.64-10.1,9.61-15.89,13.55-.39-1.44-.75-2.89-1.18-4.32a65.34,65.34,0,0,0-20.22-30.72c-9.19-8-19.51-12-31.86-11.15C1730.73,639.45,1728.54,641.29,1728.65,649.13Zm76.54-124.93c-1.48,0-1.55.82-1.23,1.92l.09-.07c-2.61-.22-2.88,1.73-3.2,3.53a123.8,123.8,0,0,0-2,20.8c0,6.3,5.29,11.28,10.29,12.47a103.63,103.63,0,0,0,16.71,2.13c6.35.44,11.18-3.52,11.64-9.71.61-8.28.71-16.59,1-24.89.17-4-1.44-6-5.66-5.35l.13.08-2.1-.84-17.63-2.12c-3.19-1.09-6.42-2.37-8.14,2.13Z"/><path class="cls-1" d="M1794,1497.86c9.74,8.32,19.53,16.56,29.2,25a89.55,89.55,0,0,0,37.81,20c3.57.88,5.7,2.22,4.87,6.11-1.76,8.29,3.38,13.51,8.43,18.58,2.59,2.6,3,5.11,2.13,8.49-4.49,18.17-4.44,36.51-2,55a92.54,92.54,0,0,1,0,20.91c-5.94,8.93-8.58,18.32-3.93,28.7l-48.28,1.15a9.1,9.1,0,0,0-4.43-5.75c-6.76-3.87-13.47-7.84-20.35-11.49-12.78-6.77-26.87-10.24-40.35-15.22a55.4,55.4,0,0,0-31.29-2.58c-10.49,2.24-21.18,3.53-31.43-2.07-3.59-2-6.36-.27-6.95,4.05-5.84-6.1-7.21-14.09-8.46-21.83-2.4-14.92,2.23-28.3,10.13-40.88,12-19.13,27.7-35.21,42.55-52-.48,5.66,1.17,9.63,5.17,9.81,9.38.43,18.73,1,27.4-4.62C1779.53,1529.14,1789.79,1515.76,1794,1497.86Zm16.93,163c1.87,2.07,3.84.87,5.79.17,5.64-1.88,11.69-.5,17.35-2.2,5.13.24,7.7-1.92,7.37-7.33-.49-7.94-.51-15.9-1.18-23.82-.44-5.32-4-9.35-9.31-9.37-7,0-14.35.1-21,2.83-4.27,1.76-7.88,5.15-8.12,10.38a97.57,97.57,0,0,0,2,22.73c.24,1.26.56,2.69,2.42,2.51l-.29,0a.94.94,0,0,0,1.09,1.1l-.07-.1c.28,2.38,1.25,3.88,4,3.09Z"/><path class="cls-3" d="M735.66,257c6.46.4,12.91.76,19.36,1.21,2.67.18,4.44,2,6.4,3.6a238.72,238.72,0,0,0,31.08,20.55c3.12,1.77,5.66,3.92,6.9,7.46a25.17,25.17,0,0,0,2.84,5.77c8.49,12.59,9.83,27.17,11.76,41.6,1.92,14.24,3.94,28.48,5.8,42.73,1.24,9.44.44,18.9-1.14,28.18-.56,3.32-3.46,6.34-5.6,9.27a174.54,174.54,0,0,0-23.41,45.15c-7.94,22.3-19.35,43.14-30,64.25-5.91,11.7-12.38,23.14-17.69,35.09C735,577.46,730.66,594,727.1,610.6c-1.65,7.72-4.65,15.33-4,23.38,1.29,16.25.79,32.65,2.38,48.78,1.41,14.3,6.7,28.19,9.92,42.34,6.47,28.45,20.88,53.52,33.62,79.27,10.51,21.24,21.53,42.18,29.34,64.67,4.53,13.06,13.56,23.84,20.31,35.79a14.83,14.83,0,0,1,1.84,8.91c-.49,7.64-.53,15.31-.44,23,.15,14.61.06,29.1-3.92,43.4-4.44,16-4.95,32.41-4.06,48.87.22,4.08-1.08,6.44-4.92,8-12.16,5-23.64,11.19-33.25,20.41a9.57,9.57,0,0,1-7.71,2.66c-4.15-.32-8.33,0-12.49-.23-1.51-.07-3.79,1-4.4-1s1.82-2.54,3-3.55c11.65-10.14,24-19.26,38.43-25.11,4.1-1.67,5.29-3.52,3.72-7.9a89.42,89.42,0,0,1-3.91-15.84c-1-6.45,1.21-12.75,2-19.11,1.62-13.74,6.85-27,5.25-41.18-1.25-11,.46-21.94.32-32.91a13.26,13.26,0,0,0-2-7.48c-3.16-4.87-5.86-10-9.09-14.85-7-10.54-12-22-16.18-33.93-6.78-19.15-17.13-36.62-26.06-54.77C736.32,785,727.22,768,720.15,750.14c-5.45-13.71-7.92-28.58-12.18-42.8-5.15-17.22-6.58-34.72-6.07-52.59.21-7.25-1.3-14.54-1.51-21.83-.22-7.49,2.57-14.58,4-21.85,2.81-14.78,7.59-29.06,12.42-43.26,3.59-10.53,9.63-20,14.69-29.91,16.14-31.53,31.92-63.16,44-96.58,3.23-9,9.7-17,15.67-24.66,7.82-10.07,6.6-21.62,6.53-32.86-.06-10.07-1.74-20.13-2.62-30.2-1.06-12.22-.92-24.67-3.37-36.6-1.93-9.4-7-18.16-10.68-27.18-.69-1.7-2.5-2.11-4-2.79a155.5,155.5,0,0,1-37.81-25.42c-1.34-1.21-2.73-2.36-4.09-3.54Z"/><path class="cls-3" d="M1824,351c-.54-24.75,3.1-47.29,5.73-69.89,1.7-14.57,2.46-29.17,3-43.79.37-10,1-20.25,3.91-29.56,2.48-8.08,6.93-16.66,16.26-20.19,6.45-2.44,12.44-5.59,19.86-5.77,8.09-.19,14.39,1.75,19.92,7.59a21.13,21.13,0,0,1,5.33,8.13c4,12.22,6.17,24.41,5.35,37.56-1.12,17.73-1.53,35.66.69,53.38q3.92,31.19,6.7,62.47c1,10.59-2.09,20.47-4.49,30.4-5,20.58-18.1,34.7-37.22,43.11-11.37,5-21.86,1.41-29.52-8.15-8.48-10.57-11.2-23.06-13.55-35.86A130.33,130.33,0,0,1,1824,351Z"/><path class="cls-3" d="M1938.07,1138c1,19.31-1.13,38.21-8.22,56.29a44.93,44.93,0,0,1-16.53,20.64c-1.37,1-2.82.79-4.29.89-17.43,1.12-29.81-7.71-40.76-20-12-13.49-14.52-30.44-16.88-47-1.37-9.64.93-19.86,2-29.77,3-26.58,6.66-53.11,6.06-80-.11-4.83-.11-9.67-.6-14.46-1.38-13.39,1.39-26.08,5.82-38.58,2.24-6.32,12.6-13.45,19.22-14.16,10.32-1.09,19.22,2.6,28.14,6.74a12.82,12.82,0,0,1,4.21,3.38c7.5,8.58,10.33,18.68,11.9,29.85,2,14.43,1,28.93,2.68,43.32,2.3,19.8,4.23,39.65,6.55,59.46C1938.34,1122.41,1937.74,1130.22,1938.07,1138Z"/><path class="cls-4" d="M142,351.83c3.74,5.75,4.25,12.55,5.9,18.92,5,19.29,10.39,38.54,14.08,58.09,3.91,20.68,6.06,41.69,8.95,62.56,3.23,23.32,6.31,46.64,11.34,69.71,3.74,17.16,7.94,34.24,11.18,51.52,1,5.49.47,11,.32,16.41q-.78,27.42-1.92,54.82c-.2,4.74-.08,9.88-5.57,12.35-6-11.85-10.13-24.46-15.19-36.7-7.42-17.93-14-36.17-23.53-53.23-3.63-6.5-9.53-9.46-14.72-13.64-7.17-5.79-10.69-13.8-11.53-22.32-1.59-16.05-.58-32.27-1.37-48.36-.94-19.12-5.91-37.58-12.24-55.63-4.28-12.22-8.53-24.44-12.84-36.64-4.83-13.69-6.48-28-8.76-42.24-.52-3.27-.62-6.63-1.39-9.84-.58-2.39.41-3.69,2.25-4.27,18.48-5.92,36.15-13.92,54.07-21.27A8.08,8.08,0,0,1,142,351.83Z"/><path class="cls-4" d="M479.17,692.06c-5.41-1.55-5.48-6.35-5.81-10.47-1-12.09-1.44-24.22-2.19-36.32-.55-8.95-1-17.91-1.88-26.83-.63-6.45.71-12.65,2.07-18.74,5.18-23.16,8.81-46.6,12.94-70,2-11.4,2.53-23.07,3.82-34.61,2.61-23.41,4.69-46.91,8.14-70.2,2.47-16.72,6.54-33.22,10.41-49.7,2.23-9.5,3.55-19.29,7.52-28.34,5.6,1.1,10.6,3.78,15.78,6a338.73,338.73,0,0,0,36.12,12.62c5.51,1.62,6.49,4.45,5.93,9.35-2.68,23.61-7,46.78-15.24,69.24-5.6,15.21-10.42,30.84-13,46.89-1.83,11.37-3.76,22.81-3,34.54.67,10.29-.42,20.7.45,31,.81,9.55-2.62,17.64-6.5,25.66-2.62,5.41-8.55,7.74-13.07,11.34a19.07,19.07,0,0,0-5,6C502.18,626,494.13,655.08,483.12,683,481.91,686,480.49,689,479.17,692.06Z"/><path class="cls-3" d="M1911.7,848c0,25.15.16,50.3-.09,75.45-.09,9-.71,18,.35,26.91.38,3.2-.82,4.27-4,4.84a55.66,55.66,0,0,1-26.62-1.51c-7.74-2.36-15.49-3.82-23.47-1.11-4,1.35-3.59-2.26-3.82-4.06a196.58,196.58,0,0,1-2-21.34c-1.06-58.11-1.55-116.22-.91-174.33.11-9.6.49-19.29,2.78-28.76.86-3.55,2.2-4.6,5.77-3,8.47,3.72,17.09,3,25.81.56,7.39-2.09,14.89-3.08,22.68-1.81,3.45.57,3.89,1.9,3.76,4.86-.41,9.14-.77,18.3-.79,27.45-.1,32,0,63.93,0,95.89Z"/><path class="cls-3" d="M1803.49,1465.8a136.85,136.85,0,0,1-45-5.52c-14-4.18-27.43-11.66-39.42-20.81-.39-.3-.7-.77-1.13-1-17.91-8-26.49-23.88-32.86-40.9-5.75-15.37-8.39-31.38-5.91-48.11a297.92,297.92,0,0,1,11.86-51c5.84-17.45,13.83-34.25,30-44.38,11.94-7.49,25-13.08,39.47-15.28,11.29-1.73,22.39-1.56,33.68-1.12,9.77.37,19.6-.32,29.38-.93,3.69-.23,4.75,1,4.43,4.38-.49,5.12-.71,10.26-1.22,15.37-.17,1.72-.38,4.14-3.17,3.19-11.16-3.8-21.89-.06-32.72,1.69-15.71,2.54-28.86,10.66-40.87,20.36-9.84,8-15.84,19-20,30.92s-8.6,24-10.07,36.67c-1.12,9.62-1.47,19.36,3.28,28.52,4.19,8.07,8.21,16.26,11.73,24.65,3.67,8.72,10.81,13.79,18.37,18.17,9.53,5.53,20.47,7,31.07,9.52,11.67,2.82,23.14.11,34.68.69,3.22.16,4.63.69,5,4.3.84,7.53,2.25,15,3.66,22.47.72,3.81-.15,5.63-4.32,6.45C1816.5,1465.44,1809.64,1466.26,1803.49,1465.8Z"/><path class="cls-3" d="M960.5,317.28a70.86,70.86,0,0,1,22,1.79c2.91.63,3.8,2,3.29,4.88q-2.1,12-3.83,24c-.42,2.95-1.46,4.4-4.74,4.2-5.15-.3-10.3-.06-15.44-.84-9.58-1.45-18.68,1.88-28,3.15a64.45,64.45,0,0,0-22.8,7.86c-7.28,4.08-14.22,9.17-17.87,17.31-2.37,5.29-4.2,10.93-7.28,15.77-10.2,16-10.48,32.9-5.73,50.55,3.61,13.44,7.8,26.75,14.25,39,4.79,9.11,12.54,16.15,21.17,22.08,15.12,10.4,31.8,15.75,50,17.18,5.33.42,10.47,1.25,15.61-.91,1.75-.74,2.8.11,3,2.07.58,6.1,1.22,12.2,1.8,18.3.25,2.6-1.59,2.44-3.29,2.39-6.81-.22-13.6,0-20.44-.71a113.61,113.61,0,0,0-20.45.15c-14.81,1.14-29-1.46-42.69-6.77-12.42-4.82-24.09-11-33.24-21.13a20.51,20.51,0,0,1-2.5-2.9c-11.23-18.61-18.09-38.76-22.56-60-2.39-11.41-3.54-22.87-4.67-34.37-1.08-11,2.93-21.21,5.74-31.52,3-10.94,9.11-20.6,14.65-30.38,1.58-2.78,5.33-4.35,8.14-6.41A300.82,300.82,0,0,1,907,326.32c8.91-4.49,18.25-5.6,27.62-7.06C943.3,317.92,952,316.05,960.5,317.28Z"/><path class="cls-2" d="M1753.15,1781.69a41.16,41.16,0,0,1,0-6c.7-5.11-1-7.51-6.47-8.48-20.37-3.63-38.57-13.18-57-21.94l-1.77-.84c-10.39-5-10.22-4.92-7.41-16.3,1.76-7.13,4.07-14.07,6.37-21a5.86,5.86,0,0,1,4.53-4.4c11.26-3.4,22.75-3.51,34.32-3.18,7.16.2,14.35.83,21.46.28,16-1.23,31.66,1,47.23,4a573.2,573.2,0,0,1,62.19,16.06c4.3,1.34,7.89,4,11.85,5.95,2.19,1.08,2.29,3.2,2.38,5.13.45,10.28,1,20.57.18,30.87-.17,2-.67,2.75-2.81,3.16-24.3,4.65-48.47,10.29-73.49,8.88-3.21-.18-4.6.66-5.27,4.11-1,5.1-2.9,10-4.41,15-9.26-7.92-19.57-8.88-30.74-4.92C1753.91,1786.14,1753.53,1783.92,1753.15,1781.69Z"/><path class="cls-3" d="M1886.91,1989.71c.07-17,1.9-32.17,4.28-47.27,1.7-10.82,2-21.44-.58-32.13-1.52-6.25.19-12.15,2.58-17.93,1-2.45,2.21-2.82,4.51-1.38,5.21,3.25,10.65,6.15,15.85,9.43,3.21,2,5.86,1.45,8.63-.69,4.87-3.77,9.83-7.41,14.69-11.19,1.87-1.45,2.79-1.34,4,1a38,38,0,0,1,3.89,20.78c-2.23,27.09-1.45,54.21-.63,81.31.44,14.31,1.11,28.58.07,42.89-.32,4.36-1.57,6.25-6,5.29-7.44-1.63-15.09-1.9-22.42-4.49-6.73-2.37-13.43.61-19.81,2.54-3.1.94-3.53.34-4.32-2.23-2.5-8-2.67-16.38-3.55-24.61C1887.3,2003.4,1887.22,1995.72,1886.91,1989.71Z"/><path class="cls-2" d="M1437.65,1308.72c0,6.26-.06,12.53,0,18.8.27,22.37,1.64,44.74,6.82,66.49,10.23,43,23.72,84.94,43.67,124.57,8.35,16.59,12.61,34.67,19.17,51.92,9.63,25.35,19,50.8,27.21,76.68,1.66,5.26,1.69,10.45,1.84,15.74.42,15.13.83,30.13,5,45,3,10.43,1.14,21.55.29,32.34-1,12.61-2.11,25.22-3.11,37.83-1.77,22.18,2.66,43.5,9.4,64.09,19.31,59,40.79,117.25,59.29,176.51.46,1.48,3.35,4.24-.66,4.95-2.74.49-6.15,2.92-7.84-2.54-15.73-50.76-35.4-100.22-50.5-151.18-5.15-17.37-12.49-34-15.73-52.05-4.5-25-2.86-50.06-1.1-75.1,1.06-15,2-29.87-2.37-44.6-2.46-8.24-1.55-16.88-1.73-25.35a97.66,97.66,0,0,0-5.24-29.32c-13.43-40-28.9-79.18-42.06-119.23-4.15-12.61-9.92-24.74-15.47-36.85-13.32-29.09-20.77-60.07-29.55-90.63-2.8-9.76-2.65-19.86-2-29.8q2-29.1,2.66-58.23Z"/><path class="cls-2" d="M1436,1180.77c-.35-8.55-.52-17.1-1.08-25.63-.72-10.94-2.22-21.85-2.52-32.79-.3-11.1-.84-22.34,2.42-33.21,6.41-21.38,11.34-43.18,18.94-64.22,4.47-12.39,9.73-24.46,15-36.51,14.83-33.95,24.64-69.72,37.87-104.25,5.3-13.83,9.54-28.07,14.65-42a72.45,72.45,0,0,0,4.41-25.44c0-13,.94-25.85,4.2-38.61,2.26-8.87,1.15-18.26.26-27.38a448.26,448.26,0,0,1-2.13-58.38,158.68,158.68,0,0,1,9.47-48.37c10.07-28.07,18.09-56.8,27.69-85,10.36-30.43,20.46-61,30.66-91.45,1.33-4,5.81-5.64,9.1-3.26,2,1.46.2,3.13-.21,4.44-5.28,16.66-10.69,33.27-16.12,49.87q-20.6,63.1-42.45,125.8c-6.15,17.74-9.06,36.36-10.21,54.84-.67,10.92,1.17,22.47,2.45,33.7,1.71,14.87,3.84,29.8,1.75,44.82a126.19,126.19,0,0,1-3.06,13.62c-2.71,10.65-2,21.53-2,32.31a72.11,72.11,0,0,1-3.66,22c-9.88,31.28-22.74,61.53-32.5,92.81-7.08,22.7-18.57,43.39-27.18,65.37-20.73,53-35.72,107-34.39,164.57.09,4.12,0,8.25,0,12.38Z"/><path class="cls-2" d="M1780.49,1829.38c.06.42.11.84.16,1.26a1,1,0,0,0-.56,1.34c-1.7,14.61-3.71,29.18-5,43.82-1.78,20-5.82,39.77-8.26,59.72-1.37,11.25-4,22.34-5.59,33.58-1.42,10-2.12,20.07-3.32,30.09-1.52,12.62-3.37,25.19-4.75,37.82-.31,2.88-1.45,3-3.7,2.94-8-.21-15.76-1.66-23.59-3-2.82-.47-3.18-2-2.88-4.17,1.83-13.41,3.84-26.79,5.55-40.21,1.9-14.91,4.42-29.72,5.53-44.75,1-14.16,2.74-28.29,4.57-42.39,1.3-10,1.71-20.1,3.26-30.09,2-13.18,3.88-26.39,5.8-39.59.42-2.94,0-6,1.26-8.83,1-1.26,2.12-.5,3,.07C1761.12,1832.59,1770.72,1831.91,1780.49,1829.38Z"/><path class="cls-5" d="M1894.14,1529.57c-1.52-24.46-1.49-49.61-1-74.76.35-19.12.82-38.26,2-57.35,1.08-17.86,3.3-35.66,4.73-53.5,1.24-15.38,2-30.8,3.12-46.19.47-6.44,1.35-12.85,1.93-19.29.14-1.53.43-2.65,2.24-2.47,3.64.34,7.29.57,10.89,1.17,1.81.29,1.9,2,1.71,3.6-2,16.8-2.87,33.69-4,50.56-1.21,17.86-3.54,35.64-4.69,53.5-1.58,24.4-1.63,48.87-2.53,73.3-1,26.17.55,52.26.68,78.38a540,540,0,0,0,3.5,55.17c1.58,14.66,2.11,29.44,3.27,44.15q1.66,21.32,3.74,42.61c.28,2.94-.32,4.54-3.51,4.47a24.83,24.83,0,0,0-3,.09c-8.19.86-8.45.89-9.12-7.28-1.24-15-2-30.14-3.19-45.2-1.09-13.7-2.56-27.38-3.77-41.08-.79-8.93-1.91-17.86-2-26.8C1895,1551.82,1893.13,1541.08,1894.14,1529.57Z"/><path class="cls-2" d="M942.28,154.68a63.52,63.52,0,0,1,7.33,1.34,36.52,36.52,0,0,1,7.79,3.18c3.46,2,.85,5.1.85,7.7,0,17.14,0,34.28-.23,51.41-.06,3.73,1.07,6.24,4.5,7.26,2.6.77,2.25,1.94,1.63,4-4.84,15.77-8.9,31.83-14.58,47.29-3,8.29-7,16.68-13.71,23.12-1.83,1.74-3.52,1.81-5.63,1.13-4.7-1.53-10.32-.78-13.55-5.95a10.39,10.39,0,0,1-1.74-3.82c-2.74-14.65-1.55-29.55-2.87-44.28-.6-6.62-1.1-13.26-1.87-19.86-.46-3.84-.62-7.2,3.95-8.76,2.78-1,3.87-3.21,4.26-6.14,2-15.42,4.27-30.8,6.36-46.21.54-4,5.51-9.57,9.65-9.91C937.08,155.93,939.44,154.06,942.28,154.68Z"/><path class="cls-2" d="M869.66,292.63c-10.29.42-10.55-.06-14.84-9-4.7-9.83-4.49-20.61-6.81-30.89-1.57-6.92-3.48-13.77-4.2-20.87-.24-2.42-2.52-3-4.51-3.24-1.78-.24-2.71-.77-2.44-2.79,3.08-22.59,1.22-45.55,5.07-68.08a9.29,9.29,0,0,1,6.86-7.58c12.81-3.78,13.73-2.87,20.71,8.72,10.16,16.88,12.74,36.31,19.39,54.35.69,1.85,1.15,3.78,1.78,5.64,1.09,3.27,2.58,6.55-2.6,7.84-1.64.41-1.85,2.06-2.06,3.64-2,14.59-1.27,29.21-.41,43.82.22,3.64-.66,7.31.33,10.93a2.17,2.17,0,0,1-1.61,2.72C879.44,289.44,875.5,294,869.66,292.63Z"/><path class="cls-2" d="M1931.33,571.53a243.08,243.08,0,0,0-2.76,26.05c-.4,8.55.78,16.85,1.44,25.25,0,.6.41,1.52.86,1.7,5.91,2.3,3.6,6.92,2.73,10.7-4.22,18.52-5.28,37.46-7.59,56.24-1.06,8.66-3.34,10.91-11.9,9.82-4.72-.59-9.49-.39-13.86-3.11-2.63-1.63-3.72-3.13-3.42-6.27.78-8.1,1.8-16.16,2.11-24.33.44-11.26-1.28-22.18-3.54-33.08-.5-2.4-1.07-4.23,2-5.54,2.5-1.05,3.32-3.14,2.88-6.46-1-7.57-.61-15.31-1.49-22.9-.82-7.07-3.6-13.7-6.63-20.13-1.37-2.9-3.09-5.63,1.37-7.56a4.73,4.73,0,0,0,2.45-3c1.22-6.53,7-9.6,10.52-14.38.74-1,1.78-.46,2.74-.3a9.31,9.31,0,0,0,3.43.36c5-1.14,9.1-1.32,12.64,3.92C1928.11,562.64,1932,565.86,1931.33,571.53Z"/><path class="cls-2" d="M1931,1789.59c0,1.43.59,2.82-.57,3.16-5.61,1.62-4.58,6.35-4.75,10.27-.54,13.07-2.33,26.21,1.79,39.1,1.66,5.21-.29,10.5-.18,15.75,0,1.77-1.44,2-2.41,2.8-2.23,1.84-5.44,2.73-6.07,6.15a.89.89,0,0,1-.18.47c-.54.58-15.22-.66-15.67-1.33-.27-.41-.38-1.18-.69-1.26-7.82-2-8-9.48-11.07-15-.88-1.6-1.62-3.17-.66-4.64,4.23-6.54,3-14.14,4.16-21.23,1.25-7.49,1.47-15.15,2.39-22.7.4-3.34-.69-6.39-3.08-7.88-3-1.89-2.43-4.14-1.89-6.39a118.47,118.47,0,0,0,3.35-37.55c-.5-6.13-1.09-12.25-1.56-18.38-.42-5.45,2.95-9.41,8.44-10q5.7-.63,11.41-1.18c4.35-.42,7.83,2,8.37,6.2,1.71,13.35,3.34,26.71,4.75,40.1C1927.72,1774.16,1929.73,1782,1931,1789.59Z"/><path class="cls-3" d="M1876.81,1456.46c-8,5-16.71,6.1-25,8.48-2.8.81-4.51.17-5.17-3.72-4.27-25.21-3.64-50.34,0-75.52a200.75,200.75,0,0,0-.35-62.09,34.74,34.74,0,0,1,2-18.15c.78-2.08,1.67-3,4-1.8,7.48,4,14.25,9.23,22.39,11.95,1.11.37,1.11,1,.64,1.87-3,5.5-.9,11.21-.12,16.64,2.67,18.69,1.09,37.2-1.87,55.62-3.07,19.06-2.16,38.14-1.3,57.25C1872.23,1450.58,1874,1453.65,1876.81,1456.46Z"/><path class="cls-5" d="M1925.76,534.05c-21.16,1.66-38.35-17.78-35.75-41.3.86-7.78,5-14.92,10.25-20,8.75-8.47,19.87-12.9,32.68-10.69,7.7,1.32,14.18,5.77,18.93,11,7,7.68,10.61,17.12,10.27,28.52C1961.74,515.27,1944,537.56,1925.76,534.05Z"/><path class="cls-5" d="M737.24,142c-20.88,1.28-38.49-15.17-37-41.11.45-7.9,4.88-14.91,10-20,7.92-7.83,17.79-12.47,30-11,15.57,1.91,29.86,16.89,31.82,32,1.61,12.41-2.47,23.12-11.05,31C754.61,139,746.41,144.22,737.24,142Z"/><path class="cls-1" d="M1984.63,355.67c-.42,8.3-2.2,16.41-3.23,24.62-.42,3.35-2.68,3-4.68,2.71-7.67-1.24-14.61.7-21.61,3.67-3.21,1.36-4.67,3-5.16,6.27-2,12.9-8.29,23.52-17.81,33.22-6-28.44-5.17-56.76-5-85a26.42,26.42,0,0,0,13.53-12.37c2.22-4,2.25-7.76-.46-11.49l22.63.11a19.64,19.64,0,0,0,2.57,10C1970.9,337.43,1975.83,347.87,1984.63,355.67Z"/><path class="cls-1" d="M1985.72,216.06c.1,28.22,1,56.49-5,84.81a57,57,0,0,1-17.64-31.8c-.8-4.27-2.43-6.45-6.5-8-6.77-2.63-13.41-4.59-20.74-3.08-1.84.38-3.87.67-4.32-2.43-1.2-8.36-2.91-16.65-3.34-25.11,9.39-8.18,14.47-19.25,20-30a17.1,17.1,0,0,0,1.85-8.17l22.36,0c-2.43,3.88-2.36,7.61-.08,11.68A27.32,27.32,0,0,0,1985.72,216.06Z"/><path class="cls-3" d="M1981.94,1823.67c-1,6.23-.32,13.69-3.65,20.49a12.69,12.69,0,0,1-7.24,6.89,145.6,145.6,0,0,0-14.91,6.89c-2.54,1.29-3.57,1.12-4.54-1.9-1.79-5.57-2.66-11.17-.71-16.65,4.44-12.47,2.89-24.91.56-37.4-4.68-25.1-3.89-49.92,3.72-74.38,2.37-7.63,2.41-7.4,9.53-4.93,4.66,1.62,9,4,14.2,4.42,3.89.34,3.16,4.22,2.8,6.78-.47,3.42-1.77,6.72-2.61,10.09-4,16-3.17,32-.68,48C1980,1802.18,1981.24,1812.39,1981.94,1823.67Z"/><path class="cls-3" d="M1687.38,1648.64c.59-4.32,3.36-6,6.95-4.05,10.25,5.6,20.94,4.31,31.43,2.07a55.4,55.4,0,0,1,31.29,2.58c13.48,5,27.57,8.45,40.35,15.22,6.88,3.65,13.59,7.62,20.35,11.49a9.1,9.1,0,0,1,4.43,5.75c-25.22,1.3-50.43,3.37-75.68,1.18-14.33-1.24-28.08-4.56-40.07-13.22-3.78-2.73-6.42-6.78-10-9.32a29.3,29.3,0,0,1-8.27-9.39A10.61,10.61,0,0,1,1687.38,1648.64Z"/><path class="cls-3" d="M1819.33,501.37c-.81,2.89-2.79,4.77-5.25,6.35-15.47,9.89-32.18,16.93-49.64,22.53-9,2.89-17.74,6.29-27.27,7.3a38.86,38.86,0,0,1-12.35-.73,90.87,90.87,0,0,0-17.73-1.92,29.45,29.45,0,0,0-14.33,3.08c-5,2.56-7.24,1.33-8.26-4,7.29-12.32,17.82-21,30.66-27,13.26-6.19,27.55-7,41.81-7.41C1777.79,498.93,1798.56,500.18,1819.33,501.37Z"/><path class="cls-3" d="M1940.46,1359.79c1.58,2.55,2.19,5.16,4.89,6,1.12.35,1,1.4.89,2.5-3.18,33.39-.77,66.87-1.53,100.3q-.57,24.39.34,48.8c1.88,48.11,1.8,96.23,1.79,144.36,0,8.07-3.56,14.61-5.9,22-.83-5.59-3.68-10.72-3.83-16.29-1.1-40.28-3.15-80.55-1.82-120.85.72-22.12,1.91-44.21,1.7-66.36-.23-25.61-.14-51.22-.13-76.83,0-12.89-1.32-25.85,2.05-38.56.25-.95.42-1.93.69-2.89C1939.75,1361.41,1940,1360.89,1940.46,1359.79Z"/><path class="cls-3" d="M1007.35,222.46c2.17,7,5.92,13.12,5.8,20.88-.5,30.81.1,61.63-.28,92.44-.38,31.44-1.74,62.88-2.09,94.32-.32,29-.06,57.95.42,86.91.11,6.53-.74,13.25,1.39,19.68.42,1.29.21,2.58-.88,3.07-2.63,1.2-3.44,3.74-5.09,7-2.29-10.56-3.9-19.91-3.74-29.7.41-25.31-.06-50.64.37-75.95.31-18.41.54-36.85-.5-55.2-1-17.8-.9-35.6-1.2-53.37-.38-22.94,0-45.93,1.21-68.87.38-6.81.38-13.65.39-20.48C1003.16,236.05,1006.1,229.47,1007.35,222.46Z"/><path class="cls-3" d="M721.87,185.27l3,1.8c5.83,3.53,11.72,7,17.46,10.63,3,1.94,5.34,1.93,7.81-.91,7.83-9.06,15.39-18.36,24.51-26.24,2.75-2.37,2.36-6.43,3.58-9.65.49-1.3.72-3.43,2.8-2.6s.07,2.27,0,3.42c-.38,9.21-7.73,13.77-13.14,19.64-5.06,5.5-9.9,11.21-15.08,16.58-2.69,2.79-2.11,4.13,1.3,5,6.76,1.69,13.47,3.69,20.32,4.88,3.87.68,5.44,1.92,6.1,6a68.85,68.85,0,0,1-.49,24.67c-.41,2.11-1.11,3.08-3.26,2.18-12.22-5.08-25.3-5.11-38.14-6.53a6,6,0,0,1-4-1.53c-9.95-9.5-19-20.11-32-25.89-1.48-.65-1.87-1.58-.88-3.14,4.74-7.49,11.47-12.84,18.7-17.67A10.23,10.23,0,0,1,721.87,185.27Z"/><path class="cls-3" d="M1823.42,123c7.27-5.84,14.55-10.66,22.93-13.75,3.31-1.22,5.8-1.66,8.48,1.17,4.79,5.07,11.48,7.21,17.32,10.67,2,1.2,3,.61,3.42-1.52,1.82-9.7,6.3-18.52,9.25-27.84.89-2.8,8.87-8,11.65-7.61,1.41.22,1.59,1,.72,2-.1.13-.22.31-.36.34-12.13,2.94-11.84,14.5-15.33,23-5.63,13.73-5.11,14,5.91,23.78.62.55,1.15,1.4,1.87,1.62,10.78,3.27,9.09,12,8.53,20-.85,12.14-1.66,12.82-12.4,7.61-9.47-4.59-19.64-4.54-29.56-6.28-1.68-.29-3.15-.41-4.26-2C1843.52,142.73,1833.77,132.73,1823.42,123Z"/><path class="cls-3" d="M1929,875.83c-1.38-9.21,1.19-18.12,1.93-27.17.14-1.76,1.31-1.6,2.48-1.61,16-.16,32,.06,47.87,1.73,1.53.17,3,.13,3.13,2.27a161.73,161.73,0,0,1-1.51,37.24c-11.89,7.05-23.85,9.69-36.43,1.4C1940.17,885.57,1934,881.43,1929,875.83Z"/><path class="cls-3" d="M1928.85,108a169.44,169.44,0,0,1-1.56-37.11c.11-2.06,1.39-2.65,3.34-2.8,15.41-1.19,30.84-1.4,46.28-1.34,2.72,0,4.14.67,4.29,3.83.4,8.23,3.07,16.3,1.64,24.65-5.37,6.28-12.18,10.68-19.14,14.93-7.81,4.77-15.91,5.21-24.45,2.52A53.12,53.12,0,0,1,1928.85,108Z"/><path class="cls-2" d="M1510.68,822.09a26.26,26.26,0,0,1-1.74,11.4c-10.83,30.79-22.29,61.38-32.25,92.44-9.54,29.73-21.84,58.28-33.78,87-2.57,6.17-4.56,12.57-6.67,18.44-2.92-14.42,2.32-28.13,6-42,5.14-19.13,10.54-38.2,15.62-57.35,2.67-10,8.45-18.52,12.87-27.68C1483.94,877.13,1498.54,850.61,1510.68,822.09Z"/><path class="cls-2" d="M1437,1456.67c3.91,10.71,8,21.3,12.55,31.71,24,54.86,41.38,112.16,61.74,168.37a19.36,19.36,0,0,1,.86,8.51c-10.92-25.68-24-51.15-37.53-76.29-10.8-20-18.18-41-23.73-62.89-3.89-15.38-8.24-30.64-12.63-45.88C1436,1472.41,1436.87,1464.58,1437,1456.67Z"/><path class="cls-1" d="M1929,875.83c5,5.6,11.22,9.74,17.47,13.86,12.58,8.29,24.54,5.65,36.43-1.4a135.55,135.55,0,0,1-4.64,24.35c-.71,2.61-2.22,2.47-4,2.37a73.74,73.74,0,0,0-20.7,1.88c-4.71,1.1-6.31,3.12-6.7,7.93-1,11.84-6.39,21.91-14.08,31.42C1928.07,929.19,1929.52,902.46,1929,875.83Z"/><path class="cls-1" d="M1928.85,108a53.12,53.12,0,0,0,10.4,4.68c8.54,2.69,16.64,2.25,24.45-2.52,7-4.25,13.77-8.65,19.14-14.93,1.1,22.68-1,68-4,80.44-3.73-5.07-7.46-9.48-9.44-14.72-2.2-5.83-4.7-11.71-4.69-18.18,0-3.44-1.66-4.95-5.23-5.86-7.46-1.9-14.82-3.53-22.54-2.15-2,.36-2.78-.45-3.37-2.43A132.81,132.81,0,0,1,1928.85,108Z"/><path class="cls-3" d="M1794,1497.86c-4.23,17.9-14.49,31.28-29.85,41.28-8.67,5.65-18,5-27.4,4.62-4-.18-5.65-4.15-5.17-9.81a19.93,19.93,0,0,1,5.21-6c7.14-2.85,12.11-8.35,17-14,7.84-9,13.75-19.63,22.27-28.14a3,3,0,0,0,.58-3.23A166.28,166.28,0,0,1,1794,1497.86Z"/><path class="cls-3" d="M1728.65,649.13c-.11-7.84,2.08-9.68,9.21-10.16,12.35-.84,22.67,3.18,31.86,11.15a65.34,65.34,0,0,1,20.22,30.72c.43,1.43.79,2.88,1.18,4.32a160.06,160.06,0,0,1-17.52,15.5c.36-1.16.52-2.26-.45-3.25-9.41-9.53-15.76-21.51-24.94-31.19-4.17-4.39-8.33-9-14.35-11.06A19.72,19.72,0,0,1,1728.65,649.13Z"/><path class="cls-3" d="M1980.65,1275.77c.67,6.74-2.56,13-3.83,19.65-.51,2.66-2.69,2.54-4.71,2.56-7.19.09-14.14,1.91-21.2,2.94-3.44.51-3.49,2-1.25,4.13,8.1,7.88,15.35,16.62,24.25,23.67,4.32,3.42,4.34,8.73,6,13.33.2.55-.06,1.48-.85,1.51-.53,0-1.09-.5-1.62-.82a.61.61,0,0,1-.25-.42c-1.6-12.33-13.17-16.8-19.88-25.08-3.45-4.25-7.73-7.82-11.26-12s-4.09-10-5.74-15.2c-1.87-5.83-2.83-11.94-4.26-17.91-1-4.27.49-5.62,4.88-5.3,9.41.68,18.76,2.85,28.27,1.31,1-.16,2-.06,3-.16C1980.49,1267.14,1980.49,1267.14,1980.65,1275.77Z"/><path class="cls-3" d="M1942.63,831.72c-2.27-6.84-5.2-12.31-.06-18.72,5.59-7,9.15-15.42,15.14-22.19,1.62-1.83,1.6-2.93-.84-4-6.22-2.74-12.25-6.08-19.15-6.67-2.78-.24-4-1.35-4.85-3.92a87.69,87.69,0,0,1-4.65-23.33c-.18-3.12,1.15-3.85,3.83-3.45a130.47,130.47,0,0,0,36.23.1c3.84-.5,4.92,1.18,3.6,4.66a170.74,170.74,0,0,0-8.32,32.23A7.37,7.37,0,0,1,1962,790c-6.69,7.5-11.09,16.56-17,24.57-2.41,3.26-3.19,6.3-1.77,10.07C1944,826.59,1944.79,828.68,1942.63,831.72Z"/><path class="cls-2" d="M1538.57,594c1.74-28,11-54.06,17.82-80.72,4.56-17.91,9.7-35.66,15.59-53.18.53-1.57.21-4.27,2.43-4.31a21.59,21.59,0,0,1,8.75,1.5c1.8.78.08,3-.39,4.45q-15.46,46.39-31,92.75c-3.9,11.67-7.68,23.39-11.53,35.08C1539.7,591.1,1539.11,592.56,1538.57,594Z"/><path class="cls-3" d="M848.61,90.05c10.23-3.33,16,4.29,22.77,9.35.45.34,1.07,1.26,1,1.43-5.45,7.5-4.4,16.61-6.2,25-.27,1.25-.55,2-1.92,2.45-7.77,2.54-15.59,4.5-23.88,3.71-1.84-.18-2.18-.77-1.74-2.5,3.09-12,.8-23.75-1.9-35.4-.88-3.77.31-4.25,3.44-4.06C843,90.19,845.78,90.05,848.61,90.05Z"/><path class="cls-3" d="M1709.61,483.6c-5.82-.46-11.92-.64-17.94-2.3-3.44-.95-5.64-2.27-6.38-5.83-1.24-5.87-5.11-10.37-8.23-15.23-1.45-2.25-1.53-3.68,1-5.24,4.8-3,9.23-6.59,14.15-9.31,5.81-3.21,12.61-2.3,18.92-3.52,2.09-.4,1.73,1.45,1.52,2.76-.53,3.27-.86,6.6-1.69,9.8-2.21,8.57.41,16.77,1.59,25.09C1712.81,481.88,1713.92,484.55,1709.61,483.6Z"/><path class="cls-2" d="M1411.85,1376.53c-.54-27.67-4.34-53.9-7-80.23-1.16-11.44-2.59-22.85-4.07-34.24-.39-3.06-.11-4.66,3.41-3.22a2.65,2.65,0,0,0,.49.09c7.7,1.66,7.69,1.66,8.38,9.25,2.09,23,3.74,46.13,3.94,69.29C1417.11,1350.38,1414.73,1363,1411.85,1376.53Z"/><path class="cls-2" d="M1410.64,1073.54a152.29,152.29,0,0,1,3.63,16c2.79,15,2.3,30.09,1.28,45.12-1.17,17.25-2.17,34.53-4.06,51.74-.41,3.71-1.66,4.51-4.66,5.22-8.08,1.93-7.78,2.07-6.81-6.22,4-34.41,9.23-68.69,11.16-103.32.16-2.92.59-5.81.9-8.72Z"/><path class="cls-5" d="M1780.49,1829.38c-9.77,2.53-19.37,3.21-28.48-2.35-.93-.57-2-1.33-3-.07,1.13-9.82,1.93-19.69,3.51-29.43.86-5.32-.28-10.6.68-15.84.38,2.23.76,4.45,1.1,6.42,11.17-4,21.48-3,30.74,4.92C1784.21,1805.24,1782.07,1817.27,1780.49,1829.38Zm-2.26-21.37c.55-2,1.34-3.7,1.42-5.42.37-7.81,2.23-10.26-7.68-11.31-1.49-.16-3-.28-4.47-.51-9-1.4-10.79.24-10.34,9.74,5.55-6,11.7-2.14,17.52-1,5,.94.9,5.47,2.48,7.9C1777.23,1807.49,1777.41,1807.53,1778.23,1808Zm-22.73,8.61c-1.91,8.18-1.6,8.67,6,9.73a71.25,71.25,0,0,0,7.45.61c7.48.24,10.85-5.24,7.75-12.85-2,1.91-.7,6.35-4.27,6.54C1766.68,1821,1760.49,1822.25,1755.5,1816.62Z"/><path class="cls-3" d="M1950.08,192.29a17.1,17.1,0,0,1-1.85,8.17c-5.58,10.71-10.66,21.78-20,30-1.73-11.88-1.15-23.84-1.26-35.78,0-2.37.89-3.14,3.26-3C1936.81,192,1943.45,192.08,1950.08,192.29Z"/><path class="cls-3" d="M1984.63,355.67c-8.8-7.8-13.73-18.24-19.26-28.26a19.64,19.64,0,0,1-2.57-10c6.62-.17,13.24-.31,19.86-.52,2.23-.07,3.25.67,3.25,3.13C1985.86,331.89,1986.23,343.81,1984.63,355.67Z"/><path class="cls-3" d="M1985.72,216.06A27.32,27.32,0,0,1,1972.36,204c-2.28-4.07-2.35-7.8.08-11.68,12-1.59,12.11-1.59,12.45,10.44C1985,207.17,1986.4,211.55,1985.72,216.06Z"/><path class="cls-3" d="M1940.17,317.26c2.71,3.73,2.68,7.45.46,11.49a26.42,26.42,0,0,1-13.53,12.37c.38-6.43.81-12.86,1.12-19.29.19-4,2-5.6,6-5A58.45,58.45,0,0,0,1940.17,317.26Z"/><path class="cls-1" d="M1733.86,655.16c6,2.07,10.18,6.67,14.35,11.06,9.18,9.68,15.53,21.66,24.94,31.19,1,1,.81,2.09.45,3.25-1.38,1.69-2.23.36-3-.6Q1752.2,677.62,1733.86,655.16Z"/><path class="cls-1" d="M1776.63,1482.57a3,3,0,0,1-.58,3.23c-8.52,8.51-14.43,19.09-22.27,28.14-4.86,5.61-9.83,11.11-17,14q18.33-22.44,36.67-44.87C1774.32,1482,1775.2,1480.08,1776.63,1482.57Z"/><path class="cls-3" d="M1871.55,531.23c-6.15-8.87-8.66-18.24-3.94-28.6,6.71-.89,6.82-.88,6.27,5.55C1873.21,515.87,1872.33,523.55,1871.55,531.23Z"/><path class="cls-3" d="M1870.46,1680.55c-4.65-10.38-2-19.77,3.93-28.7.81,7.5,1.65,15,2.44,22.5C1877.55,1681.12,1877.38,1681.27,1870.46,1680.55Z"/><path class="cls-3" d="M1018.87,923.89a23.12,23.12,0,0,1-1,9.35,3.19,3.19,0,0,1-2.18,2.53c-1.58.35-2.07-1.21-2.35-2.09-2.21-7-1.89-14.06-.43-21.12a2.51,2.51,0,0,1,2.32-2.28c1.69,0,2.17,1.55,2.48,2.74A34,34,0,0,1,1018.87,923.89Z"/><path class="cls-3" d="M1011.94,1004.66c.33-2.88-.57-6.09.89-9.09.5-1,.85-2.44,2.2-2.36a3.09,3.09,0,0,1,2.77,2.47c1.33,6.7,1.91,13.44.11,20.18-.32,1.19-1,2.28-2.29,2.33-1.51.06-2.18-1.16-2.67-2.48C1011.65,1012.18,1012.08,1008.51,1011.94,1004.66Z"/><path class="cls-3" d="M1012,1048.72c-.06-4.65-.18-8.3,1-11.84a3,3,0,0,1,2.45-2.21,2.65,2.65,0,0,1,2.41,2.21c1.87,6.89,1.24,13.81-.22,20.66a3.59,3.59,0,0,1-2.48,2.15c-1.6.27-2-1.37-2.48-2.59C1011.56,1054.05,1012.14,1050.85,1012,1048.72Z"/><path class="cls-3" d="M1012,963.86c.22-3-.39-6.16.75-9.22.48-1.3,1.09-2.53,2.63-2.65,1.8-.14,2.15,1.46,2.44,2.65a43.26,43.26,0,0,1,.22,19.73c-.32,1.38-.89,2.65-2.5,2.64s-2.14-1.28-2.59-2.61C1011.78,971,1012.06,967.5,1012,963.86Z"/><path class="cls-2" d="M1389.92,1753c3.6,12,9.3,23.26,11.1,36.57-6.63-11.93-9.11-24.48-12.72-36.63Z"/><path class="cls-2" d="M1396.4,692.55c1.66-8.9,4.86-17.29,8.58-25.49,1.2.21.77,1.34,1.13,2-1.84,8.51-5.63,16.33-8.62,24.44Z"/><path class="cls-5" d="M1389,717c1.11-7.66,2.74-15.15,6.43-22l1.45.92c-1.85,7.32-5,14.18-7.93,21.08Z"/><path class="cls-5" d="M1369.69,417.22c5.75.35,11.52.91,16.59,4.19A50,50,0,0,1,1369.69,417.22Z"/><path class="cls-5" d="M1377.07,2030.83c-6.89,3.33-13,3.63-19.13,4.18A50,50,0,0,1,1377.07,2030.83Z"/><path class="cls-5" d="M1389.92,1753l-1.62-.06c-2.77-3.94-3-8.49-3.34-13C1387.05,1744.15,1389.09,1748.36,1389.92,1753Z"/><path class="cls-5" d="M1406.11,669.08c-.36-.68.07-1.81-1.13-2a20,20,0,0,1,4-11l-.07-.05A32.79,32.79,0,0,1,1406.11,669.08Z"/><path class="cls-5" d="M1409,656.08v-2.63c1.29,1.25.7,1.93-.07,2.58Z"/><path class="cls-2" d="M1396.87,695.91l-1.45-.92c.33-.82.65-1.63,1-2.44l1.09,1C1397.29,694.31,1397.08,695.11,1396.87,695.91Z"/><path class="cls-5" d="M1388.94,717c-.11.42-.23.83-.34,1.24-.79-.69,0-.89.39-1.19Z"/><path class="cls-5" d="M1780.09,1832a1,1,0,0,1,.56-1.34C1780.93,1831.28,1780.63,1831.68,1780.09,1832Z"/><path class="cls-1" d="M344.69,1789.76c-10.34,1.36-21.66-.91-32.81-5.65-10-4.24-18-14.95-17.95-25.82.06-9.55,5.47-16.23,14.58-19.06,8.86-2.76,17.42-6.49,26.31-9.07,7.87-2.29,16.27-2.64,24,0,8.16,2.8,16.38,5.81,24.68,7.62,16.4,3.59,20.85,23.35,11.18,35.19-9.38,11.49-22,15.34-35.81,16.72C354.74,1790.11,350.54,1789.76,344.69,1789.76Z"/><path class="cls-1" d="M345.06,1866.08c-10.75-.21-20.29-.09-29.54-2.2-12.56-2.86-21.55-16-20.28-28.78.72-7.21,9.52-17.11,16.35-19.39a47.83,47.83,0,0,1,18-2.13c14.41.69,28.86-.94,43.28-1.26,16.5-.36,28.94,10.25,27.16,29.37-.94,10-14.23,21.4-23.44,22.07C365.61,1864.55,354.78,1866.61,345.06,1866.08Z"/><path class="cls-2" d="M1832.85,525c4.22-.68,5.83,1.36,5.66,5.35-.34,8.3-.44,16.61-1,24.89-.46,6.19-5.29,10.15-11.64,9.71a103.63,103.63,0,0,1-16.71-2.13c-5-1.19-10.31-6.17-10.29-12.47a123.8,123.8,0,0,1,2-20.8c.32-1.8.59-3.75,3.2-3.53-2.26,7-2.59,14.28-2.45,21.45.16,7.68,2.55,9.89,7.68,9.5,4.1-.31,5.51-2.7,5.6-9.94,0-2.35,1-5-1.91-6.65s-3.53,1.78-5.6,2.67c-1.06-4.79.78-9,.86-13.2,0-1.47,2-2.41,4-2.22,4.79.46,9.6.81,14.4,1.16,3.75.27,5.5,2.21,4.3,5.83-.9,2.71,2.4,8.25-4.5,7.3-1.53-.21-2.85.51-3,1.94-.51,3.77-.81,7.57-1,11.36a2.88,2.88,0,0,0,2.13,2.54c5.17,1.87,11-2.31,10.54-7.25-.6-5.86.6-11.63,1.27-17.35C1836.78,529.27,1836.09,526.88,1832.85,525Z"/><path class="cls-1" d="M1832.85,525c3.24,1.85,3.93,4.24,3.47,8.16-.67,5.72-1.87,11.49-1.27,17.35.51,4.94-5.37,9.12-10.54,7.25a2.88,2.88,0,0,1-2.13-2.54c.15-3.79.45-7.59,1-11.36.19-1.43,1.51-2.15,3-1.94,6.9.95,3.6-4.59,4.5-7.3,1.2-3.62-.55-5.56-4.3-5.83-4.8-.35-9.61-.7-14.4-1.16-2-.19-3.92.75-4,2.22-.08,4.25-1.92,8.41-.86,13.2,2.07-.89,2.71-4.28,5.6-2.67s1.94,4.3,1.91,6.65c-.09,7.24-1.5,9.63-5.6,9.94-5.13.39-7.52-1.82-7.68-9.5-.14-7.17.19-14.47,2.45-21.45l-.09.07c.74-.43,1.82-.65,1.23-1.92l-.08.08c2.74-.62,5-3.09,8.14-2.13l17.63,2.12,2.1.84Z"/><path class="cls-2" d="M1813.25,522.15c-3.15-1-5.4,1.51-8.14,2.13C1806.83,519.78,1810.06,521.06,1813.25,522.15Z"/><path class="cls-2" d="M1833,525.11l-2.1-.84Z"/><path class="cls-2" d="M1805.19,524.2c.59,1.27-.49,1.49-1.23,1.92C1803.64,525,1803.71,524.16,1805.19,524.2Z"/><path class="cls-2" d="M1806.3,1656.72c-1.86.18-2.18-1.25-2.42-2.51a97.57,97.57,0,0,1-2-22.73c.24-5.23,3.85-8.62,8.12-10.38,6.6-2.73,13.92-2.85,21-2.83,5.32,0,8.87,4,9.31,9.37.67,7.92.69,15.88,1.18,23.82.33,5.41-2.24,7.57-7.37,7.33,4.41-1.76,5.88-4.45,5.09-9.58a87.17,87.17,0,0,1-1.28-17.36c.18-3.73-2.44-6.28-6.23-6.78-2.62-.35-5.52-.41-6.5,3-.77,2.75,1.55,13.09,2.85,12.86,6.54-1.19,5.24,3.65,5.94,7.17.85,4.29-1.07,6.14-5.11,6.44-4.64.35-9.27.7-13.9,1.13-2,.18-3.71-1.18-3.74-2.53-.09-4.19-2.16-8.3-.69-13.3,1.74,1.68,2.75,4.06,5.3,2.84s2.15-3.44,2.09-5.59c0-1.33-.09-2.65-.13-4-.1-4-1.69-7-6-7-4.13.08-7.14,1.91-7.29,6.9C1804.28,1641.05,1805.38,1648.87,1806.3,1656.72Z"/><path class="cls-1" d="M1806.3,1656.72c-.92-7.85-2-15.67-1.79-23.63.15-5,3.16-6.82,7.29-6.9,4.29-.08,5.88,3,6,7,0,1.33.09,2.65.13,4,.06,2.15.46,4.37-2.09,5.59s-3.56-1.16-5.3-2.84c-1.47,5,.6,9.11.69,13.3,0,1.35,1.71,2.71,3.74,2.53,4.63-.43,9.26-.78,13.9-1.13,4-.3,6-2.15,5.11-6.44-.7-3.52.6-8.36-5.94-7.17-1.3.23-3.62-10.11-2.85-12.86,1-3.45,3.88-3.39,6.5-3,3.79.5,6.41,3,6.23,6.78a87.17,87.17,0,0,0,1.28,17.36c.79,5.13-.68,7.82-5.09,9.58-5.66,1.7-11.71.32-17.35,2.2l-5.79-.17.07,0c-1.1-1.33-2-2.93-4-3.09l.07.1c.25-1-.07-1.38-1.09-1.1Z"/><path class="cls-2" d="M1807,1657.76c2,.16,2.89,1.76,4,3.09C1808.28,1661.64,1807.31,1660.14,1807,1657.76Z"/><path class="cls-2" d="M1811,1660.82l5.79.17C1814.79,1661.69,1812.82,1662.89,1811,1660.82Z"/><path class="cls-2" d="M1806,1656.76c1-.28,1.34.13,1.09,1.1A.94.94,0,0,1,1806,1656.76Z"/><path class="cls-2" d="M1778.23,1808c-.82-.48-1-.52-1.07-.63-1.58-2.43,2.5-7-2.48-7.9-5.82-1.11-12-5-17.52,1-.45-9.5,1.35-11.14,10.34-9.74,1.48.23,3,.35,4.47.51,9.91,1,8,3.5,7.68,11.31C1779.57,1804.31,1778.78,1806,1778.23,1808Z"/><path class="cls-2" d="M1755.5,1816.62c5,5.63,11.18,4.35,17,4,3.57-.19,2.26-4.63,4.27-6.54,3.1,7.61-.27,13.09-7.75,12.85a71.25,71.25,0,0,1-7.45-.61C1753.9,1825.29,1753.59,1824.8,1755.5,1816.62Z"/></svg>